<?xml version="1.0" standalone="no"?><!DOCTYPE svg PUBLIC "-//W3C//DTD SVG 1.1//EN" "http://www.w3.org/Graphics/SVG/1.1/DTD/svg11.dtd" ><svg xmlns="http://www.w3.org/2000/svg"><metadata></metadata><defs><font id="1.408;TRBY;BarlowCondensed-Medium" horiz-adv-x="1012"><font-face font-family="Barlow Condensed Medium" font-weight="500" font-stretch="normal" units-per-em="1000" panose-1="0 0 6 6 0 0 0 0 0 0" ascent="1000" descent="-200" x-height="0" bbox="-603 -209 988 1073" underline-thickness="50" underline-position="-75" unicode-range="U+0000-fb02" /><missing-glyph horiz-adv-x="363" d="M0 4 q0 -4 4 -4 l355 0 q4 0 4 4 l0 692 q0 4 -4 4 l-355 0 q-4 0 -4 -4 l0 -692 ZM152 238 q-10 0 -10 10 l0 33 q0 33 12.5 52.5 q12.5 19.5 38.5 44.5 q23 23 34.5 41 q11.5 18 11.5 45 q0 31 -14.5 50 q-14.5 19 -37.5 19 q-25 0 -40.5 -19 q-15.5 -19 -15.5 -51 l0 -16 q0 -10 -10 -10 l-48 2 q-4 0 -7 3 q-3 3 -3 8 l0 13 q0 59 34.5 96 q34.5 37 90.5 37 q55 0 88 -35.5 q33 -35.5 33 -94.5 q0 -45 -15.5 -71 q-15.5 -26 -43.5 -52 q-20 -19 -29.5 -33 q-9.5 -14 -9.5 -33 l0 -29 q0 -10 -10 -10 l-49 0 ZM177 90 q-20 0 -33 13 q-13 13 -13 33 q0 20 13 32.5 q13 12.5 33 12.5 q20 0 32.5 -12.5 q12.5 -12.5 12.5 -32.5 q0 -20 -12.5 -33 q-12.5 -13 -32.5 -13 Z" /><glyph glyph-name="NULL" unicode="" d="" /><glyph glyph-name="nonmarkingreturn" unicode="" d="" /><glyph glyph-name="space" unicode=" " d="" /><glyph glyph-name="A" unicode="a" d="M336 0 q-9 0 -11 9 l-22 115 q0 2 -1.5 3 q-1.5 1 -3.5 1 l-163 0 q-2 0 -3.5 -1 q-1.5 -1 -1.5 -3 l-21 -115 q-1 -9 -11 -9 l-76 0 q-5 0 -7.5 3 q-2.5 3 -1.5 8 l149 680 q2 9 11 9 l89 0 q10 0 11 -9 l150 -680 l0 -2 q0 -9 -9 -9 l-78 0 ZM147 208 q0 -4 3 -4 l133 0 q3 0 3 4 l-68 355 q-1 2 -2 2 q-1 0 -2 -2 l-67 -355 Z" /><glyph glyph-name="AE" unicode="æ" d="M684 627 q0 -10 -10 -10 l-225 0 q-4 0 -4 -4 l0 -217 q0 -4 4 -4 l138 0 q10 0 10 -10 l0 -63 q0 -10 -10 -10 l-138 0 q-4 0 -4 -4 l0 -218 q0 -4 4 -4 l225 0 q10 0 10 -10 l0 -63 q0 -10 -10 -10 l-316 0 q-10 0 -10 10 l0 114 q0 4 -4 4 l-177 0 q-2 0 -4 -3 l-49 -117 q-3 -8 -11 -8 l-79 0 q-5 0 -7.5 3.5 q-2.5 3.5 -0.5 8.5 l292 680 q3 8 11 8 l355 0 q10 0 10 -10 l0 -63 ZM198 209 q-1 -2 0 -3.5 q1 -1.5 3 -1.5 l143 0 q4 0 4 4 l1 354 q0 3 -2 3 q-2 0 -3 -2 l-146 -354 Z" /><glyph glyph-name="B" unicode="b" d="M426 191 q0 -91 -51.5 -141 q-51.5 -50 -135.5 -50 l-167 0 q-10 0 -10 10 l0 680 q0 10 10 10 l153 0 q91 0 142.5 -47.5 q51.5 -47.5 51.5 -138.5 q0 -108 -77 -149 q-5 -3 -1 -5 q40 -24 62.5 -67 q22.5 -43 22.5 -102 ZM162 617 q-4 0 -4 -4 l0 -212 q0 -4 4 -4 l64 0 q47 0 73 28.5 q26 28.5 26 79.5 q0 53 -26 82.5 q-26 29.5 -73 29.5 l-64 0 ZM231 84 q46 0 72.5 31 q26.5 31 26.5 88 q0 58 -26 90.5 q-26 32.5 -72 32.5 l-70 0 q-4 0 -4 -4 l0 -234 q0 -4 4 -4 l69 0 Z" /><glyph glyph-name="C" unicode="c" d="M228 -8 q-81 0 -130.5 49.5 q-49.5 49.5 -49.5 131.5 l0 355 q0 82 49.5 131 q49.5 49 130.5 49 q82 0 131.5 -49 q49.5 -49 49.5 -131 l0 -16 q0 -10 -10 -10 l-76 -4 q-10 0 -10 10 l0 26 q0 41 -23.5 66 q-23.5 25 -61.5 25 q-38 0 -61 -25 q-23 -25 -23 -66 l0 -368 q0 -41 23 -66 q23 -25 61 -25 q38 0 61.5 25 q23.5 25 23.5 66 l0 26 q0 10 10 10 l76 -4 q10 0 10 -10 l0 -15 q0 -82 -49.5 -131.5 q-49.5 -49.5 -131.5 -49.5 Z" /><glyph glyph-name="Ccedilla" unicode="ç" d="M409 512 q0 -10 -10 -10 l-76 -4 q-10 0 -10 10 l0 26 q0 41 -23.5 66 q-23.5 25 -61.5 25 q-38 0 -61 -25 q-23 -25 -23 -66 l0 -368 q0 -41 23 -66 q23 -25 61 -25 q38 0 61.5 25 q23.5 25 23.5 66 l0 26 q0 10 10 10 l76 -4 q10 0 10 -10 l0 -15 q0 -72 -38.5 -119.5 q-38.5 -47.5 -104.5 -58.5 q-5 -2 -2 -5 q40 -40 40 -92 q0 -7 -2 -23 q-8 -32 -30 -46 q-22 -14 -51 -14 q-20 0 -37 5 q-9 3 -8 12 l5 32 q1 9 12 7 q4 -1 10 -1 q16 0 26.5 10.5 q10.5 10.5 10.5 31.5 q0 39 -45 81 q-1 2 -5 2 q-65 11 -103.5 58.5 q-38.5 47.5 -38.5 119.5 l0 355 q0 82 49.5 131 q49.5 49 130.5 49 q82 0 131.5 -49 q49.5 -49 49.5 -131 l0 -16 Z" /><glyph glyph-name="D" unicode="d" d="M72 0 q-10 0 -10 10 l0 680 q0 10 10 10 l164 0 q83 0 132 -51 q49 -51 49 -138 l0 -322 q0 -87 -49 -138 q-49 -51 -132 -51 l-164 0 ZM158 87 q0 -4 4 -4 l73 1 q38 0 61 29.5 q23 29.5 24 80.5 l0 312 q0 51 -23 81 q-23 30 -62 30 l-73 0 q-4 0 -4 -4 l0 -526 Z" /><glyph glyph-name="Eth" unicode="ð" d="M275 700 q83 0 131.5 -51 q48.5 -51 48.5 -138 l0 -322 q0 -87 -48.5 -138 q-48.5 -51 -131.5 -51 l-164 0 q-10 0 -10 10 l0 323 q0 4 -4 4 l-25 0 q-10 0 -10 10 l0 38 q0 10 10 10 l25 0 q4 0 4 4 l0 291 q0 10 10 10 l164 0 ZM359 506 q0 51 -23 81 q-23 30 -63 30 l-72 0 q-4 0 -4 -4 l0 -214 q0 -4 4 -4 l63 0 q10 0 10 -10 l0 -38 q0 -10 -10 -10 l-63 0 q-4 0 -4 -4 l0 -246 q0 -4 4 -4 l73 1 q38 0 61 29.5 q23 29.5 24 80.5 l0 312 Z" /><glyph glyph-name="E" unicode="e" d="M397 627 q0 -10 -10 -10 l-225 0 q-4 0 -4 -4 l0 -217 q0 -4 4 -4 l138 0 q10 0 10 -10 l0 -63 q0 -10 -10 -10 l-138 0 q-4 0 -4 -4 l0 -218 q0 -4 4 -4 l225 0 q10 0 10 -10 l0 -63 q0 -10 -10 -10 l-315 0 q-10 0 -10 10 l0 680 q0 10 10 10 l315 0 q10 0 10 -10 l0 -63 Z" /><glyph glyph-name="uni0228" unicode="&#x228;" d="M397 627 q0 -10 -10 -10 l-225 0 q-4 0 -4 -4 l0 -217 q0 -4 4 -4 l138 0 q10 0 10 -10 l0 -63 q0 -10 -10 -10 l-138 0 q-4 0 -4 -4 l0 -218 q0 -4 4 -4 l225 0 q10 0 10 -10 l0 -63 q0 -10 -10 -10 l-121 0 q-2 0 -3 -1.5 q-1 -1.5 1 -3.5 q36 -40 36 -88 q0 -46 -24 -65 q-24 -19 -59 -19 q-19 0 -36 5 q-9 3 -8 12 l5 32 q1 9 12 7 q4 -1 10 -1 q16 0 26 10.5 q10 10.5 10 31.5 q0 37 -41 78 q-2 2 -5 2 l-118 0 q-10 0 -10 10 l0 680 q0 10 10 10 l315 0 q10 0 10 -10 l0 -63 Z" /><glyph glyph-name="Eogonek" unicode="&#x118;" d="M397 627 q0 -10 -10 -10 l-225 0 q-4 0 -4 -4 l0 -217 q0 -4 4 -4 l138 0 q10 0 10 -10 l0 -63 q0 -10 -10 -10 l-138 0 q-4 0 -4 -4 l0 -218 q0 -4 4 -4 l225 0 q10 0 10 -10 l0 -63 q0 -10 -10 -10 l-125 0 q-3 0 -5 -2 q-44 -44 -44 -80 q0 -8 1 -11 q2 -16 11.5 -24 q9.5 -8 23.5 -8 q6 0 10 1 l2 0 q8 0 10 -8 l5 -32 l0 -2 q0 -7 -8 -9 q-18 -5 -37 -5 q-35 0 -59 19 q-24 19 -24 65 q0 50 40 91 q2 2 1 3.5 q-1 1.5 -3 1.5 l-114 0 q-10 0 -10 10 l0 680 q0 10 10 10 l315 0 q10 0 10 -10 l0 -63 Z" /><glyph glyph-name="F" unicode="f" d="M396 627 q0 -10 -10 -10 l-224 0 q-4 0 -4 -4 l0 -217 q0 -4 4 -4 l137 0 q10 0 10 -10 l0 -63 q0 -10 -10 -10 l-137 0 q-4 0 -4 -4 l0 -295 q0 -10 -10 -10 l-76 0 q-10 0 -10 10 l0 680 q0 10 10 10 l314 0 q10 0 10 -10 l0 -63 Z" /><glyph glyph-name="G" unicode="g" d="M228 -8 q-81 0 -130.5 48 q-49.5 48 -49.5 127 l0 366 q0 79 49.5 127 q49.5 48 130.5 48 q81 0 131 -48 q50 -48 50 -128 l0 -42 q0 -10 -10 -10 l-76 0 q-10 0 -10 10 l0 44 q0 41 -23.5 66 q-23.5 25 -61.5 25 q-38 0 -61.5 -25 q-23.5 -25 -23.5 -66 l0 -368 q0 -41 23.5 -66 q23.5 -25 61.5 -25 q38 0 61.5 25 q23.5 25 23.5 66 l0 110 q0 4 -4 4 l-76 0 q-10 0 -10 10 l0 62 q0 10 10 10 l166 0 q10 0 10 -10 l0 -185 q0 -79 -50 -127 q-50 -48 -131 -48 Z" /><glyph glyph-name="H" unicode="h" d="M317 690 q0 10 10 10 l76 0 q10 0 10 -10 l0 -680 q0 -10 -10 -10 l-76 0 q-10 0 -10 10 l0 295 q0 4 -4 4 l-151 0 q-4 0 -4 -4 l0 -295 q0 -10 -10 -10 l-76 0 q-10 0 -10 10 l0 680 q0 10 10 10 l76 0 q10 0 10 -10 l0 -294 q0 -4 4 -4 l151 0 q4 0 4 4 l0 294 Z" /><glyph glyph-name="Hbar" unicode="&#x126;" d="M451 575 q10 0 10 -10 l0 -47 q0 -10 -10 -10 l-34 0 q-4 0 -4 -4 l0 -494 q0 -10 -10 -10 l-76 0 q-10 0 -10 10 l0 295 q0 4 -4 4 l-151 0 q-4 0 -4 -4 l0 -295 q0 -10 -10 -10 l-76 0 q-10 0 -10 10 l0 494 q0 4 -4 4 l-34 0 q-10 0 -10 10 l0 47 q0 10 10 10 l34 0 q4 0 4 4 l0 111 q0 10 10 10 l76 0 q10 0 10 -10 l0 -111 q0 -4 4 -4 l151 0 q4 0 4 4 l0 111 q0 10 10 10 l76 0 q10 0 10 -10 l0 -111 q0 -4 4 -4 l34 0 ZM313 392 q4 0 4 4 l0 108 q0 4 -4 4 l-151 0 q-4 0 -4 -4 l0 -108 q0 -4 4 -4 l151 0 Z" /><glyph glyph-name="I" unicode="i" d="M72 0 q-10 0 -10 10 l0 680 q0 10 10 10 l76 0 q10 0 10 -10 l0 -680 q0 -10 -10 -10 l-76 0 Z" /><glyph glyph-name="J" unicode="j" d="M196 -8 q-80 0 -128.5 48.5 q-48.5 48.5 -48.5 127.5 l0 79 q0 10 10 10 l76 0 q10 0 10 -10 l0 -81 q0 -40 22.5 -65.5 q22.5 -25.5 58.5 -25.5 q36 0 58.5 25.5 q22.5 25.5 22.5 65.5 l0 524 q0 10 10 10 l76 0 q10 0 10 -10 l0 -522 q0 -79 -48.5 -127.5 q-48.5 -48.5 -128.5 -48.5 Z" /><glyph glyph-name="K" unicode="k" d="M72 0 q-10 0 -10 10 l0 680 q0 10 10 10 l76 0 q10 0 10 -10 l0 -300 q0 -3 2 -3.5 q2 -0.5 3 2.5 l170 304 q5 7 12 7 l82 0 q6 0 8 -3.5 q2 -3.5 -1 -8.5 l-154 -278 q-1 -3 0 -6 l167 -392 l1 -4 q0 -8 -9 -8 l-83 0 q-8 0 -11 8 l-130 312 q-1 5 -5 1 l-51 -81 q-1 -1 -1 -5 l0 -225 q0 -10 -10 -10 l-76 0 Z" /><glyph glyph-name="L" unicode="l" d="M72 0 q-10 0 -10 10 l0 680 q0 10 10 10 l76 0 q10 0 10 -10 l0 -603 q0 -4 4 -4 l224 0 q10 0 10 -10 l0 -63 q0 -10 -10 -10 l-314 0 Z" /><glyph glyph-name="Lslash" unicode="&#x141;" d="M199 87 q0 -4 4 -4 l224 0 q10 0 10 -10 l0 -63 q0 -10 -10 -10 l-314 0 q-10 0 -10 10 l0 213 q0 2 -1.5 3 q-1.5 1 -3.5 -1 l-60 -46 q-2 -2 -6 -2 q-5 0 -8 4 l-34 41 q-3 3 -3 7 q0 4 4 7 l110 85 q2 2 2 5 l0 364 q0 10 10 10 l76 0 q10 0 10 -10 l0 -287 q0 -2 1.5 -3 q1.5 -1 3.5 1 l143 110 q2 2 6 2 q5 0 8 -4 l35 -42 q3 -3 3 -7 q0 -4 -4 -7 l-194 -148 q-2 -2 -2 -5 l0 -213 Z" /><glyph glyph-name="M" unicode="m" d="M373 693 q4 7 12 7 l76 0 q10 0 10 -10 l0 -680 q0 -10 -10 -10 l-76 0 q-10 0 -10 10 l0 496 q0 3 -1.5 3 q-1.5 0 -3.5 -2 l-96 -179 q-3 -7 -9 -7 q-6 0 -9 7 l-95 178 q-2 2 -3.5 2 q-1.5 0 -1.5 -3 l0 -495 q0 -10 -10 -10 l-76 0 q-10 0 -10 10 l0 680 q0 10 10 10 l76 0 q7 0 12 -7 l105 -188 q1 -1 3 -1 q2 0 3 1 l104 188 Z" /><glyph glyph-name="N" unicode="n" d="M344 690 q0 10 10 10 l75 0 q10 0 10 -10 l0 -680 q0 -10 -10 -10 l-86 0 q-8 0 -11 8 l-170 457 q-1 2 -3 1.5 q-2 -0.5 -2 -2.5 l1 -454 q0 -10 -10 -10 l-76 0 q-10 0 -10 10 l0 680 q0 10 10 10 l85 0 q8 0 11 -8 l171 -457 q1 -3 3 -2.5 q2 0.5 2 3.5 l0 454 Z" /><glyph glyph-name="Eng" unicode="&#x14a;" d="M344 690 q0 10 10 10 l75 0 q10 0 10 -10 l0 -690 q0 -62 -9 -95.5 q-9 -33.5 -43 -53 q-34 -19.5 -105 -19.5 q-14 0 -14 10 l0 63 q0 10 10 10 q27 0 39.5 9.5 q12.5 9.5 15 25.5 q2.5 16 2.5 47 q0 4 -1 5 l-172 463 q-1 2 -3 1.5 q-2 -0.5 -2 -2.5 l1 -454 q0 -10 -10 -10 l-76 0 q-10 0 -10 10 l0 680 q0 10 10 10 l85 0 q8 0 11 -8 l162 -433 q1 -3 3 -2.5 q2 0.5 2 3.5 l0 144 q0 10 5 10 l0 0 q4 0 4 4 l0 272 Z" /><glyph glyph-name="O" unicode="o" d="M230 -8 q-82 0 -132 50 q-50 50 -50 133 l0 349 q0 83 50 133.5 q50 50.5 132 50.5 q83 0 133.5 -50.5 q50.5 -50.5 50.5 -133.5 l0 -349 q0 -83 -50.5 -133 q-50.5 -50 -133.5 -50 ZM230 75 q40 0 64 26.5 q24 26.5 24 69.5 l0 358 q0 43 -24 69.5 q-24 26.5 -64 26.5 q-39 0 -62.5 -26.5 q-23.5 -26.5 -23.5 -69.5 l0 -358 q0 -43 23.5 -69.5 q23.5 -26.5 62.5 -26.5 Z" /><glyph glyph-name="Ohorn" unicode="&#x1a0;" d="M353 672 q-3 -2 0 -5 q29 -24 45 -61 q16 -37 16 -82 l0 -349 q0 -83 -50.5 -133 q-50.5 -50 -133.5 -50 q-82 0 -132 50 q-50 50 -50 133 l0 349 q0 83 50 133.5 q50 50.5 132 50.5 q26 0 57 -7 q1 -1 4 -1 q24 2 40.5 19.5 q16.5 17.5 19.5 51.5 q0 10 10 10 l34 0 q10 0 10 -14 q-6 -66 -52 -95 ZM318 529 q0 43 -24 69.5 q-24 26.5 -64 26.5 q-39 0 -62.5 -26.5 q-23.5 -26.5 -23.5 -69.5 l0 -358 q0 -43 23.5 -69.5 q23.5 -26.5 62.5 -26.5 q40 0 64 26.5 q24 26.5 24 69.5 l0 358 Z" /><glyph glyph-name="Oslash" unicode="ø" d="M419 712 q7 -4 4 -14 l-31 -70 q-1 -3 0 -6 q24 -40 24 -98 l0 -349 q0 -83 -50.5 -133 q-50.5 -50 -133.5 -50 q-60 0 -102 27 q-4 1 -6 -2 l-23 -52 q-4 -8 -13 -4 l-43 23 q-8 5 -5 13 l33 76 q2 3 0 6 q-23 40 -23 96 l0 349 q0 83 50 133.5 q50 50.5 132 50.5 q59 0 104 -28 q4 -1 6 2 l22 51 q4 9 13 4 l42 -25 ZM146 250 q0 -3 2 -3 q2 0 3 2 l149 340 q1 2 -1 6 q-24 30 -67 30 q-39 0 -62.5 -26.5 q-23.5 -26.5 -23.5 -69.5 l0 -279 ZM320 451 q0 3 -2 3 q-2 0 -3 -2 l-150 -340 q-1 -2 1 -6 q23 -31 66 -31 q40 0 64 26.5 q24 26.5 24 69.5 l0 280 Z" /><glyph glyph-name="OE" unicode="&#x152;" d="M653 627 q0 -10 -10 -10 l-225 0 q-4 0 -4 -4 l0 -217 q0 -4 4 -4 l138 0 q10 0 10 -10 l0 -63 q0 -10 -10 -10 l-138 0 q-4 0 -4 -4 l0 -218 q0 -4 4 -4 l225 0 q10 0 10 -10 l0 -63 q0 -10 -10 -10 l-315 0 q-10 0 -10 10 l0 20 q0 2 -1.5 3 q-1.5 1 -3.5 -1 q-40 -40 -105 -40 q-44 0 -80.5 23 q-36.5 23 -58 64.5 q-21.5 41.5 -21.5 95.5 l0 349 q0 54 21.5 96 q21.5 42 58 65 q36.5 23 80.5 23 q64 0 105 -41 q2 -2 3.5 -1 q1.5 1 1.5 3 l0 21 q0 10 10 10 l315 0 q10 0 10 -10 l0 -63 ZM230 75 q40 0 64 26.5 q24 26.5 24 69.5 l0 358 q0 43 -24 69.5 q-24 26.5 -64 26.5 q-39 0 -62.5 -26.5 q-23.5 -26.5 -23.5 -69.5 l0 -358 q0 -43 23.5 -69.5 q23.5 -26.5 62.5 -26.5 Z" /><glyph glyph-name="P" unicode="p" d="M250 701 q77 0 124.5 -55.5 q47.5 -55.5 47.5 -145.5 q0 -88 -46 -142 q-46 -54 -121 -54 l-94 0 q-4 0 -4 -4 l0 -290 q0 -10 -10 -10 l-76 0 q-10 0 -10 10 l0 681 q0 10 10 10 l179 0 ZM235 381 q41 0 66 31.5 q25 31.5 25 85.5 q0 55 -25 87.5 q-25 32.5 -66 32.5 l-74 0 q-4 0 -4 -4 l0 -229 q0 -4 4 -4 l74 0 Z" /><glyph glyph-name="Thorn" unicode="þ" d="M250 550 q50 0 89 -25.5 q39 -25.5 60.5 -71 q21.5 -45.5 21.5 -104.5 q0 -88 -46 -142.5 q-46 -54.5 -121 -54.5 l-93 0 q-4 0 -4 -4 l0 -138 q0 -10 -10 -10 l-76 0 q-10 0 -10 10 l0 680 q0 10 10 10 l76 0 q10 0 10 -10 l0 -136 q0 -4 4 -4 l89 0 ZM235 229 q41 0 65.5 32 q24.5 32 24.5 86 q0 55 -24.5 87.5 q-24.5 32.5 -65.5 32.5 l-74 0 q-4 0 -4 -4 l0 -230 q0 -4 4 -4 l74 0 Z" /><glyph glyph-name="Q" unicode="q" d="M225 708 q79 0 128 -52 q49 -52 49 -136 l0 -340 q0 -69 -34 -117.5 q-34 -48.5 -92 -63.5 q-3 -2 -3 -5 l0 -93 q0 -10 -10 -10 l-77 0 q-10 0 -10 10 l0 93 q0 3 -3 5 q-58 16 -91.5 64 q-33.5 48 -33.5 117 l0 340 q0 84 49 136 q49 52 128 52 ZM306 530 q0 42 -22.5 68.5 q-22.5 26.5 -58.5 26.5 q-36 0 -58.5 -26.5 q-22.5 -26.5 -22.5 -68.5 l0 -360 q0 -42 22.5 -68.5 q22.5 -26.5 58.5 -26.5 q36 0 58.5 26.5 q22.5 26.5 22.5 68.5 l0 360 Z" /><glyph glyph-name="R" unicode="r" d="M340 0 q-9 0 -12 8 l-92 298 q-1 3 -4 3 l-70 0 q-4 0 -4 -4 l0 -295 q0 -10 -10 -10 l-76 0 q-10 0 -10 10 l0 680 q0 10 10 10 l179 0 q51 0 90 -25 q39 -25 60.5 -70.5 q21.5 -45.5 21.5 -103.5 q0 -63 -26 -109.5 q-26 -46.5 -71 -67.5 q-3 -3 -2 -6 l102 -307 l1 -4 q0 -7 -9 -7 l-78 0 ZM162 617 q-4 0 -4 -4 l0 -224 q0 -4 4 -4 l74 0 q41 0 66 31.5 q25 31.5 25 83.5 q0 54 -25 85.5 q-25 31.5 -66 31.5 l-74 0 Z" /><glyph glyph-name="S" unicode="s" d="M214 -8 q-79 0 -127.5 49.5 q-48.5 49.5 -48.5 129.5 l0 26 q0 10 10 10 l74 0 q10 0 10 -10 l0 -21 q0 -46 23 -73.5 q23 -27.5 59 -27.5 q36 0 59.5 26.5 q23.5 26.5 23.5 69.5 q0 29 -12.5 51 q-12.5 22 -33 39.5 q-20.5 17.5 -66.5 51.5 q-51 38 -80 65 q-29 27 -49 65 q-20 38 -20 89 q0 81 48 128.5 q48 47.5 125 47.5 q80 0 128.5 -51 q48.5 -51 48.5 -134 l0 -25 q0 -10 -10 -10 l-74 0 q-10 0 -10 10 l0 27 q0 45 -23 72.5 q-23 27.5 -60 27.5 q-35 0 -57 -24.5 q-22 -24.5 -22 -68.5 q0 -40 22 -67.5 q22 -27.5 85 -73.5 q60 -45 90.5 -73 q30.5 -28 47 -61.5 q16.5 -33.5 16.5 -79.5 q0 -84 -49 -134.5 q-49 -50.5 -128 -50.5 Z" /><glyph glyph-name="Scedilla" unicode="&#x15e;" d="M391 177 q0 -73 -37.5 -121.5 q-37.5 -48.5 -101.5 -60.5 q-6 -1 -2 -5 q40 -40 40 -92 q0 -7 -2 -23 q-8 -32 -30 -46 q-22 -14 -51 -14 q-20 0 -37 5 q-9 3 -8 12 l5 32 q1 9 12 7 q4 -1 10 -1 q16 0 26.5 10.5 q10.5 10.5 10.5 31.5 q0 39 -45 81 q-1 2 -5 2 q-63 11 -100.5 58.5 q-37.5 47.5 -37.5 117.5 l0 26 q0 10 10 10 l74 0 q10 0 10 -10 l0 -21 q0 -46 23 -73.5 q23 -27.5 59 -27.5 q36 0 59.5 26.5 q23.5 26.5 23.5 69.5 q0 29 -12.5 51 q-12.5 22 -33 39.5 q-20.5 17.5 -66.5 51.5 q-51 38 -80 65 q-29 27 -49 65 q-20 38 -20 89 q0 81 48 128.5 q48 47.5 125 47.5 q80 0 128.5 -51 q48.5 -51 48.5 -134 l0 -25 q0 -10 -10 -10 l-74 0 q-10 0 -10 10 l0 27 q0 45 -23 72.5 q-23 27.5 -60 27.5 q-35 0 -57 -24.5 q-22 -24.5 -22 -68.5 q0 -40 22 -67.5 q22 -27.5 85 -73.5 q60 -45 90.5 -73 q30.5 -28 47 -61.5 q16.5 -33.5 16.5 -79.5 Z" /><glyph glyph-name="uni018F" unicode="&#x18f;" d="M261 708 q66 0 115 -26.5 q49 -26.5 76 -75 q27 -48.5 27 -111.5 l0 -293 q0 -62 -27 -110.5 q-27 -48.5 -76.5 -75.5 q-49.5 -27 -114.5 -27 q-65 0 -114.5 27 q-49.5 27 -76.5 75.5 q-27 48.5 -27 110.5 l0 169 q0 10 10 10 l326 0 q4 0 4 4 l0 104 q0 59 -34 97 q-34 38 -88 38 q-45 0 -74 -28 q-29 -28 -38 -75 q-3 -9 -11 -9 l-82 4 q-5 0 -7.5 3 q-2.5 3 -1.5 8 q10 84 66.5 132.5 q56.5 48.5 147.5 48.5 ZM261 73 q54 0 88 38 q34 38 34 98 l0 80 q0 4 -4 4 l-237 0 q-4 0 -4 -4 l0 -80 q0 -59 34.5 -97.5 q34.5 -38.5 88.5 -38.5 Z" /><glyph glyph-name="T" unicode="t" d="M399 700 q10 0 10 -10 l0 -63 q0 -10 -10 -10 l-131 0 q-4 0 -4 -4 l0 -603 q0 -10 -10 -10 l-76 0 q-10 0 -10 10 l0 603 q0 4 -4 4 l-124 0 q-10 0 -10 10 l0 63 q0 10 10 10 l359 0 Z" /><glyph glyph-name="Tbar" unicode="&#x166;" d="M409 627 q0 -10 -10 -10 l-131 0 q-4 0 -4 -4 l0 -194 q0 -4 4 -4 l69 0 q10 0 10 -10 l0 -41 q0 -10 -10 -10 l-69 0 q-4 0 -4 -4 l0 -340 q0 -10 -10 -10 l-76 0 q-10 0 -10 10 l0 340 q0 4 -4 4 l-80 0 q-10 0 -10 10 l0 41 q0 10 10 10 l80 0 q4 0 4 4 l0 194 q0 4 -4 4 l-124 0 q-10 0 -10 10 l0 63 q0 10 10 10 l359 0 q10 0 10 -10 l0 -63 Z" /><glyph glyph-name="U" unicode="u" d="M238 -8 q-82 0 -131.5 54.5 q-49.5 54.5 -49.5 143.5 l0 500 q0 10 10 10 l76 0 q10 0 10 -10 l0 -510 q0 -47 23.5 -76 q23.5 -29 61.5 -29 q39 0 62.5 29 q23.5 29 23.5 76 l0 510 q0 10 10 10 l76 0 q10 0 10 -10 l0 -500 q0 -89 -50 -143.5 q-50 -54.5 -132 -54.5 Z" /><glyph glyph-name="Uhorn" unicode="&#x1af;" d="M488 781 q10 0 10 -10 q-2 -43 -22 -70.5 q-20 -27.5 -53 -39.5 q-3 -1 -3 -4 l0 -467 q0 -89 -50 -143.5 q-50 -54.5 -132 -54.5 q-82 0 -131.5 54.5 q-49.5 54.5 -49.5 143.5 l0 500 q0 10 10 10 l76 0 q10 0 10 -10 l0 -510 q0 -47 23.5 -76 q23.5 -29 61.5 -29 q39 0 62.5 29 q23.5 29 23.5 76 l0 510 q0 10 10 10 l45 0 q25 0 43.5 17.5 q18.5 17.5 21.5 53.5 q0 10 10 10 l34 0 Z" /><glyph glyph-name="Uogonek" unicode="&#x172;" d="M324 690 q0 10 10 10 l76 0 q10 0 10 -10 l0 -500 q0 -80 -40.5 -132.5 q-40.5 -52.5 -109.5 -63.5 q-3 0 -5 -2 q-38 -40 -38 -76 q0 -41 37 -41 q7 0 10 1 l2 0 q7 0 9 -8 l5 -32 l0 -2 q0 -7 -8 -10 q-20 -4 -35 -4 q-68 0 -82 60 q-2 8 -2 24 q0 48 35 87 q3 3 -1 5 q-64 13 -102 65 q-38 52 -38 129 l0 500 q0 10 10 10 l76 0 q10 0 10 -10 l0 -510 q0 -47 23.5 -76 q23.5 -29 61.5 -29 q39 0 62.5 29 q23.5 29 23.5 76 l0 510 Z" /><glyph glyph-name="V" unicode="v" d="M186 0 q-9 0 -11 9 l-144 680 l0 2 q0 9 9 9 l83 0 q10 0 11 -9 l95 -519 q1 -2 2 -2 q1 0 2 2 l93 519 q2 9 11 9 l80 0 q11 0 9 -11 l-144 -680 q-1 -9 -11 -9 l-85 0 Z" /><glyph glyph-name="W" unicode="w" d="M170 0 q-9 0 -11 9 l-133 680 l0 2 q0 9 9 9 l79 0 q10 0 11 -9 l81 -469 q1 -2 2 -2 q1 0 2 2 l72 469 q1 9 10 9 l67 0 q9 0 10 -9 l77 -469 q1 -2 2 -2 q1 0 2 2 l74 469 q2 9 10 9 l78 0 q5 0 7.5 -3 q2.5 -3 1.5 -8 l-126 -680 q-1 -9 -11 -9 l-71 0 q-8 0 -10 9 l-76 473 q-1 2 -2.5 2 q-1.5 0 -1.5 -2 l-72 -473 q-1 -9 -10 -9 l-71 0 Z" /><glyph glyph-name="X" unicode="x" d="M42 0 q-5 0 -7.5 3.5 q-2.5 3.5 -0.5 8.5 l139 335 q2 3 0 6 l-139 335 l-1 4 q0 8 9 8 l78 0 q8 0 11 -8 l91 -241 q1 -3 3 -3 q2 0 3 3 l90 241 q3 8 11 8 l78 0 q5 0 7.5 -3.5 q2.5 -3.5 0.5 -8.5 l-139 -336 q-1 -3 0 -6 l139 -334 l1 -4 q0 -8 -9 -8 l-77 0 q-8 0 -11 8 l-91 240 q-1 3 -3 3 q-2 0 -3 -3 l-91 -240 q-3 -8 -11 -8 l-78 0 Z" /><glyph glyph-name="Y" unicode="y" d="M183 1 q-10 0 -10 10 l0 286 l-1 5 l-139 387 l-1 4 q0 7 9 7 l80 0 q9 0 12 -8 l85 -276 q1 -2 3 -2 q2 0 3 2 l85 276 q3 8 12 8 l80 0 q11 0 8 -11 l-139 -387 l-1 -5 l0 -286 q0 -10 -10 -10 l-76 0 Z" /><glyph glyph-name="Z" unicode="z" d="M39 0 q-10 0 -10 10 l0 67 q0 5 3 12 l232 523 q1 2 0 3.5 q-1 1.5 -3 1.5 l-222 0 q-10 0 -10 10 l0 63 q0 10 10 10 l319 0 q10 0 10 -10 l0 -67 q0 -4 -3 -12 l-233 -523 q-1 -2 0 -3.5 q1 -1.5 3 -1.5 l223 0 q10 0 10 -10 l0 -63 q0 -10 -10 -10 l-319 0 Z" /><glyph glyph-name="a" unicode="a" d="M216 517 q73 0 119.5 -46 q46.5 -46 46.5 -121 l0 -340 q0 -10 -10 -10 l-76 0 q-10 0 -10 10 l0 22 q0 2 -1.5 3 q-1.5 1 -3.5 -1 q-35 -42 -103 -42 q-57 0 -100.5 32.5 q-43.5 32.5 -43.5 115.5 q0 87 52.5 127.5 q52.5 40.5 137.5 40.5 l58 0 q4 0 4 4 l0 29 q0 42 -20 67.5 q-20 25.5 -52 25.5 q-25 0 -42 -17 q-17 -17 -20 -44 q0 -10 -10 -10 l-81 0 q-10 0 -10 10 q5 64 51 104 q46 40 114 40 ZM199 76 q35 0 61 22 q26 22 26 62 l0 68 q0 4 -4 4 l-61 0 q-40 0 -64 -21.5 q-24 -21.5 -24 -62.5 q0 -36 18 -54 q18 -18 48 -18 Z" /><glyph glyph-name="aogonek" unicode="&#x105;" d="M375 -132 q8 0 9 -7 l5 -32 l0 -2 q0 -7 -8 -9 q-17 -5 -37 -5 q-34 0 -58 19 q-24 19 -24 65 q0 55 47 98 q3 5 -2 5 l-11 0 q-10 0 -10 10 l0 22 q0 2 -1.5 3 q-1.5 1 -3.5 -1 q-35 -42 -103 -42 q-57 0 -100.5 32.5 q-43.5 32.5 -43.5 115.5 q0 87 52.5 127.5 q52.5 40.5 137.5 40.5 l58 0 q4 0 4 4 l0 29 q0 42 -20 67.5 q-20 25.5 -52 25.5 q-25 0 -42 -17 q-17 -17 -20 -44 q0 -10 -10 -10 l-81 0 q-5 0 -7.5 3 q-2.5 3 -1.5 7 q4 64 50 104 q46 40 114 40 q73 0 119.5 -46 q46.5 -46 46.5 -121 l0 -340 l-1 -10 l-1 0 q-54 -47 -54 -90 q0 -22 10 -32.5 q10 -10.5 26 -10.5 q7 0 10 1 l3 0 ZM199 76 q35 0 61 22 q26 22 26 62 l0 68 q0 4 -4 4 l-61 0 q-40 0 -64 -21.5 q-24 -21.5 -24 -62.5 q0 -36 18 -54 q18 -18 48 -18 Z" /><glyph glyph-name="ae" unicode="æ" d="M175 -8 q-141 0 -141 146 q0 86 47 122.5 q47 36.5 132 36.5 l67 0 q4 0 4 4 l0 40 q0 43 -19 68 q-19 25 -54 25 q-28 0 -48.5 -17 q-20.5 -17 -23.5 -43 q-1 -10 -11 -10 l-76 3 q-10 0 -10 10 q4 64 51.5 102 q47.5 38 115.5 38 q77 0 119 -62 q3 -3 6 0 q20 29 52.5 45.5 q32.5 16.5 74.5 16.5 q74 0 119.5 -44 q45.5 -44 45.5 -115 l0 -132 q0 -10 -10 -10 l-227 0 q-4 0 -4 -4 l0 -55 q0 -32 20.5 -54 q20.5 -22 52.5 -22 q26 0 45 16.5 q19 16.5 26 41.5 q3 9 11 8 l74 -9 q10 -2 9 -11 q-8 -63 -49.5 -99 q-41.5 -36 -108.5 -36 q-49 0 -85.5 20.5 q-36.5 20.5 -47.5 47.5 q-2 5 -3 2 q-12 -30 -55 -50 q-43 -20 -99 -20 ZM385 301 q0 -4 4 -4 l137 0 q4 0 4 4 l0 51 q0 36 -20 59 q-20 23 -52 23 q-32 0 -52.5 -23 q-20.5 -23 -20.5 -59 l0 -51 ZM199 69 q34 0 59.5 21 q25.5 21 25.5 57 l0 64 q0 4 -4 4 l-61 0 q-40 0 -64 -19.5 q-24 -19.5 -24 -55.5 q0 -35 19 -53 q19 -18 49 -18 Z" /><glyph glyph-name="b" unicode="b" d="M245 517 q66 0 104 -42.5 q38 -42.5 38 -116.5 l0 -208 q0 -71 -38.5 -114.5 q-38.5 -43.5 -103.5 -43.5 q-24 0 -48.5 9 q-24.5 9 -43.5 27 q-2 2 -3.5 1 q-1.5 -1 -1.5 -3 l0 -16 q0 -10 -10 -10 l-76 0 q-10 0 -10 10 l0 680 q0 10 10 10 l76 0 q10 0 10 -10 l0 -208 q0 -2 2 -2.5 q2 -0.5 4 2.5 q38 35 91 35 ZM292 352 q0 36 -20.5 59 q-20.5 23 -52.5 23 q-31 0 -51 -23 q-20 -23 -20 -59 l0 -195 q0 -36 20 -59 q20 -23 51 -23 q32 0 52.5 23 q20.5 23 20.5 59 l0 195 Z" /><glyph glyph-name="c" unicode="c" d="M211 -8 q-77 0 -122.5 43 q-45.5 43 -45.5 116 l0 207 q0 71 45.5 115 q45.5 44 122.5 44 q51 0 89.5 -19.5 q38.5 -19.5 59 -53 q20.5 -33.5 20.5 -75.5 l0 -13 q0 -10 -10 -10 l-76 -3 q-10 0 -10 10 l0 10 q0 29 -21 50 q-21 21 -52 21 q-32 0 -52 -23 q-20 -23 -20 -59 l0 -195 q0 -36 20 -59 q20 -23 52 -23 q31 0 52 21 q21 21 21 50 l0 10 q0 10 10 10 l76 -1 q10 0 10 -10 l0 -15 q0 -65 -46 -106.5 q-46 -41.5 -123 -41.5 Z" /><glyph glyph-name="ccedilla" unicode="ç" d="M380 356 q0 -10 -10 -10 l-76 -3 q-10 0 -10 10 l0 10 q0 29 -21 50 q-21 21 -52 21 q-32 0 -52 -23 q-20 -23 -20 -59 l0 -195 q0 -36 20 -59 q20 -23 52 -23 q31 0 52 21 q21 21 21 50 l0 10 q0 10 10 10 l76 -1 q10 0 10 -10 l0 -15 q0 -56 -35 -95.5 q-35 -39.5 -95 -49.5 q-5 -2 -2 -5 q39 -40 39 -92 q0 -45 -24 -64 q-24 -19 -59 -19 q-19 0 -36 5 q-9 3 -8 12 l4 31 q1 4 4 6.5 q3 2.5 8 1.5 q4 -1 10 -1 q16 0 26.5 10.5 q10.5 10.5 10.5 31.5 q0 20 -11.5 41 q-11.5 21 -31.5 39 q-1 2 -5 2 q-62 10 -97 51.5 q-35 41.5 -35 105.5 l0 207 q0 71 45.5 115 q45.5 44 122.5 44 q51 0 89.5 -19.5 q38.5 -19.5 59 -53 q20.5 -33.5 20.5 -75.5 l0 -13 Z" /><glyph glyph-name="d" unicode="d" d="M282 690 q0 10 10 10 l76 0 q10 0 10 -10 l0 -680 q0 -10 -10 -10 l-76 0 q-10 0 -10 10 l0 16 q0 2 -1.5 3 q-1.5 1 -3.5 -1 q-19 -18 -43 -27 q-24 -9 -48 -9 q-66 0 -104.5 43.5 q-38.5 43.5 -38.5 114.5 l0 208 q0 74 38.5 116.5 q38.5 42.5 104.5 42.5 q24 0 48 -9 q24 -9 43 -27 q2 -2 3.5 -1 q1.5 1 1.5 3 l0 207 ZM211 75 q28 0 47.5 18.5 q19.5 18.5 23.5 48.5 l0 225 q-4 30 -23.5 48.5 q-19.5 18.5 -47.5 18.5 q-32 0 -52.5 -23 q-20.5 -23 -20.5 -59 l0 -195 q0 -36 20.5 -59 q20.5 -23 52.5 -23 Z" /><glyph glyph-name="eth" unicode="ð" d="M319 592 q-3 -2 -2 -5 q61 -109 64 -247 l0 -30 l0 -64 l0 -95 q0 -73 -45.5 -116 q-45.5 -43 -123.5 -43 q-78 0 -123.5 43 q-45.5 43 -45.5 116 l0 189 q0 46 20 82.5 q20 36.5 55.5 56.5 q35.5 20 78.5 20 q49 0 75 -29 q4 -3 4 2 q-10 46 -36 95 q-2 4 -5 2 l-76 -21 l-4 -1 q-6 0 -9 8 l-6 24 l-1 4 q0 6 8 9 l60 17 q5 2 2 5 q-19 31 -55 74 q-2 2 -2 6 q0 2 2 4 q2 2 6 2 l71 0 q7 0 13 -6 q10 -14 16 -21 l28 -38 q2 -4 5 -2 l81 23 l4 1 q6 0 8 -8 l6 -26 l0 -3 q0 -7 -7 -10 l-66 -18 ZM285 334 q0 36 -20 59 q-20 23 -53 23 q-32 0 -52.5 -23 q-20.5 -23 -20.5 -59 l0 -177 q0 -36 20.5 -59 q20.5 -23 52.5 -23 q33 0 53 23 q20 23 20 59 l0 177 Z" /><glyph glyph-name="dcroat" unicode="&#x111;" d="M413 624 q10 0 10 -10 l0 -41 q0 -10 -10 -10 l-31 0 q-4 0 -4 -4 l0 -549 q0 -10 -10 -10 l-76 0 q-10 0 -10 10 l0 16 q0 2 -1.5 3 q-1.5 1 -3.5 -1 q-19 -18 -43 -27 q-24 -9 -48 -9 q-66 0 -104.5 43.5 q-38.5 43.5 -38.5 114.5 l0 208 q0 74 38.5 116.5 q38.5 42.5 104.5 42.5 q24 0 48 -9 q24 -9 43 -27 q2 -2 3.5 -1 q1.5 1 1.5 3 l0 76 q0 4 -4 4 l-118 0 q-10 0 -10 10 l0 41 q0 10 10 10 l118 0 q4 0 4 4 l0 62 q0 10 10 10 l76 0 q10 0 10 -10 l0 -62 q0 -4 4 -4 l31 0 ZM211 75 q28 0 47.5 18.5 q19.5 18.5 23.5 48.5 l0 225 q-4 30 -23.5 48.5 q-19.5 18.5 -47.5 18.5 q-32 0 -52.5 -23 q-20.5 -23 -20.5 -59 l0 -195 q0 -36 20.5 -59 q20.5 -23 52.5 -23 Z" /><glyph glyph-name="e" unicode="e" d="M379 225 q0 -10 -10 -10 l-226 0 q-4 0 -4 -4 l0 -54 q0 -36 20 -59 q20 -23 52 -23 q28 0 47 17 q19 17 24 44 q3 8 11 8 l74 -4 q5 0 7.5 -3 q2.5 -3 1.5 -7 q-7 -65 -49.5 -101.5 q-42.5 -36.5 -115.5 -36.5 q-77 0 -122.5 43 q-45.5 43 -45.5 115 l0 208 q0 71 45.5 115 q45.5 44 122.5 44 q78 0 123 -44 q45 -44 45 -115 l0 -133 ZM211 434 q-32 0 -52 -23 q-20 -23 -20 -59 l0 -53 q0 -4 4 -4 l137 0 q4 0 4 4 l0 53 q0 36 -20 59 q-20 23 -53 23 Z" /><glyph glyph-name="uni0229" unicode="&#x229;" d="M379 225 q0 -10 -10 -10 l-226 0 q-4 0 -4 -4 l0 -54 q0 -36 20 -59 q20 -23 52 -23 q28 0 47 17 q19 17 24 44 q3 8 11 8 l74 -4 q5 0 7.5 -3 q2.5 -3 1.5 -7 q-6 -55 -37 -90 q-31 -35 -84 -44 q-6 -1 -2 -5 q32 -38 32 -83 q0 -46 -24 -65.5 q-24 -19.5 -59 -19.5 q-19 0 -36 5 q-9 3 -8 12 l4 31 q1 4 4 6.5 q3 2.5 8 1.5 q4 -1 10 -1 q16 0 26.5 10 q10.5 10 10.5 31 q0 35 -36 73 q-2 2 -5 2 q-63 8 -100 50 q-37 42 -37 106 l0 208 q0 71 45.5 115 q45.5 44 122.5 44 q78 0 123 -44 q45 -44 45 -115 l0 -133 ZM211 434 q-32 0 -52 -23 q-20 -23 -20 -59 l0 -53 q0 -4 4 -4 l137 0 q4 0 4 4 l0 53 q0 36 -20 59 q-20 23 -53 23 Z" /><glyph glyph-name="eogonek" unicode="&#x119;" d="M379 225 q0 -10 -10 -10 l-226 0 q-4 0 -4 -4 l0 -54 q0 -36 20 -59 q20 -23 52 -23 q28 0 47 17 q19 17 24 44 q3 8 11 8 l74 -4 q5 0 7.5 -3 q2.5 -3 1.5 -7 q-6 -58 -41.5 -94 q-35.5 -36 -95.5 -43 q-3 0 -5 -2 q-37 -40 -37 -74 q0 -22 10.5 -32 q10.5 -10 26.5 -10 q7 0 10 1 l2 0 q7 0 9 -8 l5 -32 l0 -2 q0 -7 -8 -9 q-17 -5 -37 -5 q-34 0 -58 19 q-24 19 -24 65 q0 48 35 87 q4 3 -1 5 q-58 12 -91 52.5 q-33 40.5 -33 101.5 l0 208 q0 71 45.5 115 q45.5 44 122.5 44 q78 0 123 -44 q45 -44 45 -115 l0 -133 ZM211 434 q-32 0 -52 -23 q-20 -23 -20 -59 l0 -53 q0 -4 4 -4 l137 0 q4 0 4 4 l0 53 q0 36 -20 59 q-20 23 -53 23 Z" /><glyph glyph-name="uni0259" unicode="&#x259;" d="M207 517 q77 0 122.5 -43 q45.5 -43 45.5 -115 l0 -208 q0 -71 -45.5 -115 q-45.5 -44 -122.5 -44 q-78 0 -123.5 44 q-45.5 44 -45.5 115 l0 133 q0 10 10 10 l227 0 q4 0 4 4 l0 54 q0 36 -20 59 q-20 23 -52 23 q-28 0 -47 -17 q-19 -17 -24 -44 q-3 -8 -11 -8 l-75 4 q-10 0 -9 9 q8 66 50.5 102.5 q42.5 36.5 115.5 36.5 ZM207 75 q32 0 52 23 q20 23 20 59 l0 53 q0 4 -4 4 l-138 0 q-4 0 -4 -4 l0 -53 q0 -36 20.5 -59 q20.5 -23 53.5 -23 Z" /><glyph glyph-name="uni0292" unicode="&#x292;" d="M206 258 q-3 -3 2 -5 q90 -16 138.5 -78 q48.5 -62 48.5 -147 q0 -73 -34 -125.5 q-34 -52.5 -91 -80 q-57 -27.5 -123 -27.5 q-44 0 -92 14 q-8 3 -8 12 l3 65 q0 11 11 8 q32 -12 76 -12 q67 0 114.5 36.5 q47.5 36.5 47.5 115.5 q0 61 -34.5 102.5 q-34.5 41.5 -109.5 41.5 q-26 0 -57 -6 l-3 0 q-6 0 -9 6 l-20 48 q-1 2 -1 5 q0 5 4 9 l170 176 q3 5 -2 5 l-182 0 q-10 0 -10 10 l0 68 q0 10 10 10 l298 0 q10 0 10 -10 l0 -71 q0 -7 -5 -12 l-152 -158 Z" /><glyph glyph-name="f" unicode="f" d="M171 513 q0 -4 4 -4 l70 0 q10 0 10 -10 l0 -50 q0 -10 -10 -10 l-70 0 q-4 0 -4 -4 l0 -425 q0 -10 -10 -10 l-75 0 q-10 0 -10 10 l0 425 q0 4 -4 4 l-37 0 q-10 0 -10 10 l0 50 q0 10 10 10 l37 0 q4 0 4 4 l0 26 q0 89 37 127.5 q37 38.5 120 38.5 l13 0 q10 0 10 -10 l-2 -61 q0 -10 -10 -10 l-10 0 q-33 0 -48 -21.5 q-15 -21.5 -15 -66.5 l0 -23 Z" /><glyph glyph-name="g" unicode="g" d="M282 499 q0 10 10 10 l76 0 q10 0 10 -10 l0 -484 q0 -105 -48 -162.5 q-48 -57.5 -165 -57.5 l-27 1 q-10 1 -10 11 l0 64 q0 10 11 10 q82 -3 112.5 32.5 q30.5 35.5 30.5 110.5 l0 21 q0 2 -1.5 2.5 q-1.5 0.5 -3.5 -1.5 q-34 -46 -97 -46 q-66 0 -101.5 42.5 q-35.5 42.5 -35.5 115.5 l0 200 q0 74 36 116.5 q36 42.5 101 42.5 q65 0 97 -46 q2 -2 3.5 -1 q1.5 1 1.5 3 l0 26 ZM211 83 q32 0 51.5 22.5 q19.5 22.5 19.5 58.5 l0 188 q0 36 -19.5 59 q-19.5 23 -51.5 23 q-32 0 -52 -23 q-20 -23 -20 -59 l0 -188 q0 -36 20 -58.5 q20 -22.5 52 -22.5 Z" /><glyph glyph-name="uni01E5" unicode="&#x1e5;" d="M418 284 q10 0 10 -10 l0 -41 q0 -10 -10 -10 l-36 0 q-4 0 -4 -4 l0 -204 q0 -105 -48 -162.5 q-48 -57.5 -165 -57.5 l-27 1 q-10 1 -10 11 l0 64 q0 10 11 10 q82 -3 112.5 32.5 q30.5 35.5 30.5 110.5 l0 21 q0 2 -1.5 2.5 q-1.5 0.5 -3.5 -1.5 q-34 -46 -97 -46 q-66 0 -101.5 42.5 q-35.5 42.5 -35.5 115.5 l0 200 q0 74 36 116.5 q36 42.5 101 42.5 q65 0 97 -46 q2 -2 3.5 -1 q1.5 1 1.5 3 l0 26 q0 10 10 10 l76 0 q10 0 10 -10 l0 -211 q0 -4 4 -4 l36 0 ZM211 83 q32 0 51.5 22.5 q19.5 22.5 19.5 58.5 l0 55 q0 4 -4 4 l-66 0 q-10 0 -10 10 l0 41 q0 10 10 10 l66 0 q4 0 4 4 l0 64 q0 36 -19.5 59 q-19.5 23 -51.5 23 q-32 0 -52 -23 q-20 -23 -20 -59 l0 -188 q0 -36 20 -58.5 q20 -22.5 52 -22.5 Z" /><glyph glyph-name="h" unicode="h" d="M255 516 q63 0 96.5 -42.5 q33.5 -42.5 33.5 -120.5 l0 -343 q0 -10 -10 -10 l-76 0 q-10 0 -10 10 l0 335 q0 42 -18 65 q-18 23 -50 23 q-33 0 -51.5 -22.5 q-18.5 -22.5 -20.5 -63.5 q0 -6 -1 -6 l0 -331 q0 -10 -10 -10 l-76 0 q-10 0 -10 10 l0 680 q0 10 10 10 l76 0 q10 0 10 -10 l0 -218 q0 -2 2 -2.5 q2 -0.5 4 2.5 q36 44 101 44 Z" /><glyph glyph-name="hbar" unicode="&#x127;" d="M255 516 q63 0 96.5 -42.5 q33.5 -42.5 33.5 -120.5 l0 -343 q0 -10 -10 -10 l-76 0 q-10 0 -10 10 l0 335 q0 42 -18 65 q-18 23 -50 23 q-33 0 -51.5 -22.5 q-18.5 -22.5 -20.5 -63.5 q0 -6 -1 -6 l0 -331 q0 -10 -10 -10 l-76 0 q-10 0 -10 10 l0 538 q0 4 -4 4 l-37 0 q-10 0 -10 10 l0 41 q0 10 10 10 l37 0 q4 0 4 4 l0 73 q0 10 10 10 l76 0 q10 0 10 -10 l0 -73 q0 -4 4 -4 l112 0 q10 0 10 -10 l0 -41 q0 -10 -10 -10 l-112 0 q-4 0 -4 -4 l0 -76 q0 -2 2 -2.5 q2 -0.5 4 2.5 q36 44 101 44 Z" /><glyph glyph-name="i" unicode="i" d="M105 589 q-28 0 -46 18 q-18 18 -18 46 q0 28 18 46 q18 18 46 18 q29 0 46.5 -17.5 q17.5 -17.5 17.5 -46.5 q0 -28 -18 -46 q-18 -18 -46 -18 ZM68 0 q-10 0 -10 10 l0 489 q0 10 10 10 l76 0 q10 0 10 -10 l0 -489 q0 -10 -10 -10 l-76 0 Z" /><glyph glyph-name="dotlessi" unicode="&#x131;" d="M50 0 q-10 0 -10 10 l0 489 q0 10 10 10 l76 0 q10 0 10 -10 l0 -489 q0 -10 -10 -10 l-76 0 Z" /><glyph glyph-name="j" unicode="j" d="M100 589 q-28 0 -46 18 q-18 18 -18 46 q0 28 18 46 q18 18 46 18 q29 0 47 -18 q18 -18 18 -46 q0 -28 -18.5 -46 q-18.5 -18 -46.5 -18 ZM-26 -207 q-13 0 -13 10 l0 63 q0 10 10 10 q81 1 81 96 l0 527 q0 10 10 10 l76 0 q10 0 10 -10 l0 -527 q0 -62 -12.5 -99.5 q-12.5 -37.5 -50.5 -58.5 q-38 -21 -111 -21 Z" /><glyph glyph-name="uni0237" unicode="&#x237;" d="M-26 -207 q-13 0 -13 10 l0 63 q0 10 10 10 q81 1 81 96 l0 527 q0 10 10 10 l76 0 q10 0 10 -10 l0 -527 q0 -62 -12.5 -99.5 q-12.5 -37.5 -50.5 -58.5 q-38 -21 -111 -21 Z" /><glyph glyph-name="k" unicode="k" d="M62 0 q-10 0 -10 10 l0 680 q0 10 10 10 l76 0 q10 0 10 -10 l0 -379 q0 -3 2 -4 q2 -1 3 2 l129 194 q5 6 12 6 l78 0 q6 0 8 -3.5 q2 -3.5 -1 -8.5 l-103 -152 q-3 -3 -1 -6 l120 -328 l1 -4 q0 -7 -9 -7 l-79 0 q-9 0 -12 8 l-80 251 q-1 6 -6 1 l-60 -87 q-2 -2 -2 -5 l0 -158 q0 -10 -10 -10 l-76 0 Z" /><glyph glyph-name="l" unicode="l" d="M58 0 q-10 0 -10 10 l0 680 q0 10 10 10 l76 0 q10 0 10 -10 l0 -680 q0 -10 -10 -10 l-76 0 Z" /><glyph glyph-name="lslash" unicode="&#x142;" d="M306 393 q1 -2 1 -5 q0 -6 -5 -9 l-94 -53 q-3 -1 -3 -5 l0 -311 q0 -10 -10 -10 l-76 0 q-10 0 -10 10 l0 254 q0 2 -1.5 3 q-1.5 1 -3.5 0 l-46 -26 q-2 -1 -5 -1 q-6 0 -9 5 l-25 45 q-1 2 -1 5 q0 6 5 9 l83 47 q3 2 3 5 l0 334 q0 10 10 10 l76 0 q10 0 10 -10 l0 -276 q0 -2 1.5 -3 q1.5 -1 3.5 0 l56 32 q2 1 5 1 q6 0 9 -5 l26 -46 Z" /><glyph glyph-name="m" unicode="m" d="M480 516 q62 0 95.5 -44.5 q33.5 -44.5 33.5 -124.5 l0 -337 q0 -10 -10 -10 l-75 0 q-10 0 -10 10 l0 330 q0 44 -18 68.5 q-18 24.5 -48 24.5 q-32 0 -51 -24.5 q-19 -24.5 -19 -67.5 l0 -331 q0 -10 -10 -10 l-75 0 q-10 0 -10 10 l0 330 q0 44 -18 68.5 q-18 24.5 -48 24.5 q-32 0 -51 -24.5 q-19 -24.5 -19 -67.5 l0 -331 q0 -10 -10 -10 l-75 0 q-10 0 -10 10 l0 489 q0 10 10 10 l75 0 q10 0 10 -10 l0 -25 q0 -2 1.5 -3 q1.5 -1 3.5 1 q20 22 46 33 q26 11 52 11 q76 0 109 -67 q1 -2 3 -1.5 q2 0.5 3 4.5 q20 34 51 49 q31 15 64 15 Z" /><glyph glyph-name="n" unicode="n" d="M255 516 q63 0 96.5 -42.5 q33.5 -42.5 33.5 -120.5 l0 -343 q0 -10 -10 -10 l-76 0 q-10 0 -10 10 l0 335 q0 42 -18 65 q-18 23 -50 23 q-33 0 -51.5 -22.5 q-18.5 -22.5 -20.5 -63.5 q0 -6 -1 -6 l0 -331 q0 -10 -10 -10 l-76 0 q-10 0 -10 10 l0 489 q0 10 10 10 l76 0 q10 0 10 -10 l0 -27 q0 -2 2 -2.5 q2 -0.5 4 2.5 q36 44 101 44 Z" /><glyph glyph-name="eng" unicode="&#x14b;" d="M255 516 q63 0 96.5 -42.5 q33.5 -42.5 33.5 -120.5 l0 -346 l0 -7 l-1 -2 q0 -57 -10 -92.5 q-10 -35.5 -44.5 -57 q-34.5 -21.5 -105.5 -21.5 q-13 0 -13 10 l0 61 q0 10 10 10 q40 1 53.5 24 q13.5 23 13.5 68 l0 231 l0 4 q1 1 1 5 l0 105 q0 42 -18 65 q-18 23 -50 23 q-33 0 -51.5 -22.5 q-18.5 -22.5 -20.5 -63.5 q0 -6 -1 -6 l0 -331 q0 -10 -10 -10 l-76 0 q-10 0 -10 10 l0 489 q0 10 10 10 l76 0 q10 0 10 -10 l0 -27 q0 -2 2 -2.5 q2 -0.5 4 2.5 q36 44 101 44 Z" /><glyph glyph-name="ntilde" unicode="ñ" d="M188 640 q-11 0 -20.5 -5.5 q-9.5 -5.5 -17.5 -19.5 q-5 -10 -14 -3 l-23 19 q-7 5 -4 13 q12 30 31 45 q19 15 42 15 q14 0 26.5 -6 q12.5 -6 27.5 -17 q2 -2 10 -8 q8 -6 15 -9 q7 -3 14 -3 q11 0 20 5.5 q9 5.5 17 19.5 q7 10 14 4 l24 -18 q7 -5 4 -13 q-14 -31 -35.5 -45 q-21.5 -14 -42.5 -14 q-12 0 -22.5 5 q-10.5 5 -26.5 15 q-3 3 -11 9 q-8 6 -14.5 8.5 q-6.5 2.5 -13.5 2.5 ZM255 516 q63 0 96.5 -42.5 q33.5 -42.5 33.5 -120.5 l0 -343 q0 -10 -10 -10 l-76 0 q-10 0 -10 10 l0 335 q0 42 -18 65 q-18 23 -50 23 q-33 0 -51.5 -22.5 q-18.5 -22.5 -20.5 -63.5 q0 -6 -1 -6 l0 -331 q0 -10 -10 -10 l-76 0 q-10 0 -10 10 l0 489 q0 10 10 10 l76 0 q10 0 10 -10 l0 -27 q0 -2 2 -2.5 q2 -0.5 4 2.5 q36 44 101 44 Z" /><glyph glyph-name="o" unicode="o" d="M212 -8 q-78 0 -123.5 43.5 q-45.5 43.5 -45.5 115.5 l0 207 q0 71 46 115 q46 44 123 44 q78 0 124 -44 q46 -44 46 -115 l0 -207 q0 -72 -46 -115.5 q-46 -43.5 -124 -43.5 ZM212 76 q32 0 53 22.5 q21 22.5 21 59.5 l0 194 q0 36 -21 59 q-21 23 -53 23 q-32 0 -52.5 -23 q-20.5 -23 -20.5 -59 l0 -194 q0 -37 20.5 -59.5 q20.5 -22.5 52.5 -22.5 Z" /><glyph glyph-name="ohorn" unicode="&#x1a1;" d="M334 480 q-4 -2 0 -5 q23 -21 35.5 -51 q12.5 -30 12.5 -66 l0 -207 q0 -72 -46 -115.5 q-46 -43.5 -124 -43.5 q-78 0 -123.5 43.5 q-45.5 43.5 -45.5 115.5 l0 207 q0 71 46 115 q46 44 123 44 q26 0 57 -7 q1 -1 4 -1 q24 2 40.5 19.5 q16.5 17.5 19.5 51.5 q0 10 10 10 l34 0 q5 0 7.5 -3.5 q2.5 -3.5 1.5 -10.5 q-4 -66 -52 -96 ZM286 352 q0 36 -21 59 q-21 23 -53 23 q-32 0 -52.5 -23 q-20.5 -23 -20.5 -59 l0 -194 q0 -37 20.5 -59.5 q20.5 -22.5 52.5 -22.5 q32 0 53 22.5 q21 22.5 21 59.5 l0 194 Z" /><glyph glyph-name="oslash" unicode="ø" d="M383 528 q4 -2 5 -6 q1 -4 -1 -8 l-29 -59 q-1 -2 1 -6 q25 -39 25 -91 l0 -207 q0 -73 -45.5 -116 q-45.5 -43 -123.5 -43 q-38 0 -69 11 q-5 2 -6 -2 l-21 -46 q-5 -10 -14 -4 l-50 30 q-4 2 -5 6 q-1 4 1 8 l26 52 q1 2 -1 6 q-31 37 -31 98 l0 207 q0 71 46 115 q46 44 124 44 q45 0 75 -13 q5 -2 6 2 l23 49 q2 4 6 5 q4 1 8 -1 l50 -31 ZM141 193 q0 -3 1.5 -3 q1.5 0 3.5 2 l108 227 q1 4 -1 5 q-16 10 -38 10 q-33 0 -53.5 -23 q-20.5 -23 -20.5 -59 l0 -159 ZM288 297 q0 3 -1.5 3 q-1.5 0 -3.5 -2 l-101 -210 q-2 -5 2 -6 q14 -6 31 -6 q32 0 52.5 22.5 q20.5 22.5 20.5 59.5 l0 139 Z" /><glyph glyph-name="oe" unicode="&#x153;" d="M632 235 q0 -10 -10 -10 l-227 0 q-4 0 -4 -4 l0 -64 q0 -36 20 -59 q20 -23 52 -23 q28 0 47 17.5 q19 17.5 24 44.5 q3 8 11 8 l75 -4 q5 0 7.5 -3 q2.5 -3 1.5 -7 q-8 -66 -50.5 -102.5 q-42.5 -36.5 -115.5 -36.5 q-79 0 -122 61 q-3 3 -6 0 q-43 -61 -123 -61 q-78 0 -123.5 43.5 q-45.5 43.5 -45.5 115.5 l0 207 q0 71 46 115 q46 44 123 44 q79 0 123 -62 q3 -3 6 0 q44 62 122 62 q77 0 123 -44 q46 -44 46 -115 l0 -123 ZM286 352 q0 36 -20.5 59 q-20.5 23 -53.5 23 q-32 0 -52.5 -23 q-20.5 -23 -20.5 -59 l0 -195 q0 -36 20.5 -59 q20.5 -23 52.5 -23 q33 0 53.5 23 q20.5 23 20.5 59 l0 195 ZM463 434 q-32 0 -52 -23 q-20 -23 -20 -59 l0 -58 q0 -4 4 -4 l137 0 q4 0 4 4 l0 58 q0 36 -20 59 q-20 23 -53 23 Z" /><glyph glyph-name="p" unicode="p" d="M250 517 q65 0 103.5 -43.5 q38.5 -43.5 38.5 -114.5 l0 -208 q0 -74 -38.5 -116.5 q-38.5 -42.5 -103.5 -42.5 q-24 0 -48.5 9 q-24.5 9 -43.5 28 q-5 3 -5 -2 l0 -208 q0 -10 -10 -10 l-76 0 q-10 0 -10 10 l0 680 q0 10 10 10 l76 0 q10 0 10 -10 l0 -16 q0 -2 2 -2.5 q2 -0.5 4 1.5 q19 18 43 26.5 q24 8.5 48 8.5 ZM297 352 q0 36 -20.5 59 q-20.5 23 -52.5 23 q-31 0 -51 -23 q-20 -23 -20 -59 l0 -195 q0 -36 20 -59 q20 -23 51 -23 q32 0 52.5 23 q20.5 23 20.5 59 l0 195 Z" /><glyph glyph-name="thorn" unicode="þ" d="M248 517 q65 0 100 -42.5 q35 -42.5 35 -116.5 l0 -207 q0 -73 -35 -116 q-35 -43 -100 -43 q-30 0 -56.5 13.5 q-26.5 13.5 -42.5 41.5 q-2 2 -3.5 1.5 q-1.5 -0.5 -1.5 -3.5 l0 -235 q0 -10 -10 -10 l-76 0 q-10 0 -10 10 l0 880 q0 10 10 10 l76 0 q10 0 10 -10 l0 -226 q0 -3 2 -3 q2 0 4 3 q16 28 42 40.5 q26 12.5 56 12.5 ZM287 352 q0 36 -20 59 q-20 23 -52 23 q-31 0 -51 -23 q-20 -23 -20 -59 l0 -195 q0 -36 20 -59 q20 -23 51 -23 q32 0 52 23 q20 23 20 59 l0 195 Z" /><glyph glyph-name="q" unicode="q" d="M282 499 q0 10 10 10 l76 0 q10 0 10 -10 l0 -680 q0 -10 -10 -10 l-76 0 q-10 0 -10 10 l0 207 q0 2 -1.5 3 q-1.5 1 -3.5 -1 q-19 -18 -43 -27 q-24 -9 -48 -9 q-66 0 -104.5 42.5 q-38.5 42.5 -38.5 116.5 l0 208 q0 71 38.5 114.5 q38.5 43.5 104.5 43.5 q24 0 48 -9 q24 -9 43 -27 q2 -2 3.5 -1 q1.5 1 1.5 3 l0 16 ZM211 75 q28 0 47.5 18.5 q19.5 18.5 23.5 48.5 l0 225 q-4 30 -23.5 48.5 q-19.5 18.5 -47.5 18.5 q-32 0 -52.5 -23 q-20.5 -23 -20.5 -59 l0 -195 q0 -36 20.5 -59 q20.5 -23 52.5 -23 Z" /><glyph glyph-name="r" unicode="r" d="M245 514 q25 0 43 -11 q7 -4 5 -13 l-15 -76 q-1 -9 -12 -6 q-13 5 -28 5 q-6 0 -18 -2 q-31 -3 -51.5 -34 q-20.5 -31 -20.5 -75 l0 -292 q0 -10 -10 -10 l-76 0 q-10 0 -10 10 l0 489 q0 10 10 10 l76 0 q10 0 10 -10 l0 -58 q0 -3 1.5 -3.5 q1.5 -0.5 2.5 2.5 q29 74 93 74 Z" /><glyph glyph-name="s" unicode="s" d="M197 -6 q-75 0 -118.5 36.5 q-43.5 36.5 -43.5 98.5 l0 9 q0 10 10 10 l71 0 q10 0 10 -10 l0 -7 q0 -27 21 -45.5 q21 -18.5 52 -18.5 q30 0 48.5 18 q18.5 18 18.5 46 q0 22 -13 37 q-13 15 -30.5 23.5 q-17.5 8.5 -53.5 23.5 q-39 17 -64.5 33 q-25.5 16 -45.5 46 q-20 30 -20 76 q0 68 42.5 106 q42.5 38 114.5 38 q74 0 116.5 -39 q42.5 -39 42.5 -106 l0 -3 q0 -10 -10 -10 l-69 0 q-10 0 -10 10 l0 7 q0 27 -19 46 q-19 19 -49 19 q-31 0 -49 -19 q-18 -19 -18 -46 q0 -21 12 -35 q12 -14 29 -22.5 q17 -8.5 54 -24.5 q41 -18 68 -34.5 q27 -16.5 47.5 -46.5 q20.5 -30 20.5 -75 q0 -65 -44.5 -103 q-44.5 -38 -120.5 -38 Z" /><glyph glyph-name="scedilla" unicode="&#x15f;" d="M362 135 q0 -55 -32.5 -91 q-32.5 -36 -89.5 -46 q-5 -2 -2 -5 q39 -42 39 -91 q0 -46 -24 -65.5 q-24 -19.5 -59 -19.5 q-19 0 -36 5 q-9 3 -8 12 l5 32 q1 9 12 7 q4 -1 10 -1 q16 0 26 10.5 q10 10.5 10 32.5 q0 39 -42 78 q-2 2 -5 2 q-61 8 -96 43.5 q-35 35.5 -35 90.5 l0 9 q0 10 10 10 l71 0 q10 0 10 -10 l0 -7 q0 -27 21 -45.5 q21 -18.5 52 -18.5 q30 0 48.5 18 q18.5 18 18.5 46 q0 22 -13 37 q-13 15 -30.5 23.5 q-17.5 8.5 -53.5 23.5 q-39 17 -64.5 33 q-25.5 16 -45.5 46 q-20 30 -20 76 q0 68 42.5 106 q42.5 38 114.5 38 q74 0 116.5 -39 q42.5 -39 42.5 -106 l0 -3 q0 -10 -10 -10 l-69 0 q-10 0 -10 10 l0 7 q0 27 -19 46 q-19 19 -49 19 q-31 0 -49 -19 q-18 -19 -18 -46 q0 -21 12 -35 q12 -14 29 -22.5 q17 -8.5 54 -24.5 q41 -18 68 -34.5 q27 -16.5 47.5 -46.5 q20.5 -30 20.5 -75 Z" /><glyph glyph-name="germandbls" unicode="ß" d="M62 0 q-10 0 -10 10 l0 491 q0 98 43.5 153 q43.5 55 121.5 55 q80 0 126.5 -51.5 q46.5 -51.5 46.5 -139.5 q0 -52 -17.5 -87.5 q-17.5 -35.5 -49.5 -54.5 q-5 -3 0 -6 q35 -20 55 -65 q20 -45 20 -107 q0 -93 -48 -145.5 q-48 -52.5 -136 -52.5 l-20 0 q-10 0 -10 10 l0 62 q0 10 10 10 l21 1 q43 1 66 33 q23 32 23 92 q0 59 -20.5 91.5 q-20.5 32.5 -57.5 34.5 l-22 0 q-10 0 -10 10 l0 56 q0 10 10 10 l21 0 q33 0 51.5 26 q18.5 26 18.5 73 q0 55 -20 86 q-20 31 -57 31 q-33 0 -51.5 -29 q-18.5 -29 -18.5 -82 l0 -505 q0 -10 -10 -10 l-76 0 Z" /><glyph glyph-name="t" unicode="t" d="M251 449 q0 -10 -10 -10 l-70 0 q-4 0 -4 -4 l0 -281 q0 -40 14 -55.5 q14 -15.5 44 -14.5 l9 0 q10 0 10 -10 l0 -64 q0 -10 -10 -10 l-31 0 q-64 0 -96.5 25 q-32.5 25 -32.5 95 l0 315 q0 4 -4 4 l-39 0 q-10 0 -10 10 l0 50 q0 10 10 10 l39 0 q4 0 4 4 l0 113 q0 10 10 10 l73 0 q10 0 10 -10 l0 -113 q0 -4 4 -4 l70 0 q10 0 10 -10 l0 -50 Z" /><glyph glyph-name="tbar" unicode="&#x167;" d="M251 449 q0 -10 -10 -10 l-70 0 q-4 0 -4 -4 l0 -81 q0 -4 4 -4 l70 0 q10 0 10 -10 l0 -40 q0 -10 -10 -10 l-70 0 q-4 0 -4 -4 l0 -132 q0 -40 14 -55.5 q14 -15.5 44 -14.5 l9 0 q10 0 10 -10 l0 -64 q0 -10 -10 -10 l-31 0 q-64 0 -96.5 25 q-32.5 25 -32.5 95 l0 166 q0 4 -4 4 l-37 0 q-10 0 -10 10 l0 40 q0 10 10 10 l37 0 q4 0 4 4 l0 81 q0 4 -4 4 l-39 0 q-10 0 -10 10 l0 50 q0 10 10 10 l39 0 q4 0 4 4 l0 113 q0 10 10 10 l73 0 q10 0 10 -10 l0 -113 q0 -4 4 -4 l70 0 q10 0 10 -10 l0 -50 Z" /><glyph glyph-name="u" unicode="u" d="M283 499 q0 10 10 10 l76 0 q10 0 10 -10 l0 -489 q0 -10 -10 -10 l-76 0 q-10 0 -10 10 l0 29 q0 3 -1.5 3 q-1.5 0 -3.5 -2 q-30 -47 -96 -47 q-60 0 -97 36.5 q-37 36.5 -37 111.5 l0 358 q0 10 10 10 l76 0 q10 0 10 -10 l0 -337 q0 -86 68 -86 q34 0 52.5 24.5 q18.5 24.5 18.5 67.5 l0 331 Z" /><glyph glyph-name="uhorn" unicode="&#x1b0;" d="M445 590 q10 0 10 -10 q-2 -42 -21.5 -70 q-19.5 -28 -51.5 -39 q-3 -1 -3 -4 l0 -457 q0 -10 -10 -10 l-76 0 q-10 0 -10 10 l0 29 q0 3 -1.5 3 q-1.5 0 -3.5 -2 q-30 -47 -96 -47 q-60 0 -97 36.5 q-37 36.5 -37 111.5 l0 358 q0 10 10 10 l76 0 q10 0 10 -10 l0 -337 q0 -86 68 -86 q34 0 52.5 24.5 q18.5 24.5 18.5 67.5 l0 331 q0 10 10 10 l43 0 q25 0 43.5 17.5 q18.5 17.5 21.5 53.5 q0 10 10 10 l34 0 Z" /><glyph glyph-name="uni0123" unicode="&#x123;" d="M268 693 q6 0 8 -3.5 q2 -3.5 -1 -8.5 l-61 -108 q-5 -7 -12 -7 l-61 0 q-6 0 -8 3.5 q-2 3.5 1 8.5 l74 109 q4 6 12 6 l48 0 ZM282 499 q0 10 10 10 l76 0 q10 0 10 -10 l0 -484 q0 -105 -48 -162.5 q-48 -57.5 -165 -57.5 l-27 1 q-10 1 -10 11 l0 64 q0 10 11 10 q82 -3 112.5 32.5 q30.5 35.5 30.5 110.5 l0 21 q0 2 -1.5 2.5 q-1.5 0.5 -3.5 -1.5 q-34 -46 -97 -46 q-66 0 -101.5 42.5 q-35.5 42.5 -35.5 115.5 l0 200 q0 74 36 116.5 q36 42.5 101 42.5 q65 0 97 -46 q2 -2 3.5 -1 q1.5 1 1.5 3 l0 26 ZM211 83 q32 0 51.5 22.5 q19.5 22.5 19.5 58.5 l0 188 q0 36 -19.5 59 q-19.5 23 -51.5 23 q-32 0 -52 -23 q-20 -23 -20 -59 l0 -188 q0 -36 20 -58.5 q20 -22.5 52 -22.5 Z" /><glyph glyph-name="uni0163" unicode="&#x163;" d="M251 449 q0 -10 -10 -10 l-70 0 q-4 0 -4 -4 l0 -281 q0 -40 14 -55.5 q14 -15.5 44 -14.5 l9 0 q10 0 10 -10 l0 -64 q0 -10 -10 -10 l-21 0 q-5 0 -2 -5 q30 -39 30 -78 q0 -13 -3 -25 q-7 -32 -29 -46 q-22 -14 -51 -14 q-19 0 -37 5 q-9 2 -8 11 l5 32 q1 9 12 7 q4 -1 10 -1 q16 0 26 10.5 q10 10.5 10 31.5 q0 39 -43 80 q-1 2 -2 2 q-1 0 -2 1 q-27 11 -41 37 q-14 26 -14 72 l0 315 q0 4 -4 4 l-39 0 q-10 0 -10 10 l0 50 q0 10 10 10 l39 0 q4 0 4 4 l0 113 q0 10 10 10 l73 0 q10 0 10 -10 l0 -113 q0 -4 4 -4 l70 0 q10 0 10 -10 l0 -50 Z" /><glyph glyph-name="uogonek" unicode="&#x173;" d="M375 -132 q8 0 9 -7 l5 -32 l0 -2 q0 -7 -8 -9 q-17 -5 -37 -5 q-34 0 -58.5 19.5 q-24.5 19.5 -24.5 65.5 q0 53 47 97 q3 5 -2 5 l-13 0 q-10 0 -10 10 l0 29 q0 3 -1.5 3 q-1.5 0 -3.5 -2 q-30 -47 -96 -47 q-60 0 -97 36.5 q-37 36.5 -37 111.5 l0 358 q0 10 10 10 l76 0 q10 0 10 -10 l0 -337 q0 -86 68 -86 q34 0 52.5 24.5 q18.5 24.5 18.5 67.5 l0 331 q0 10 10 10 l76 0 q10 0 10 -10 l0 -499 l-5 -5 q-48 -45 -48 -85 q0 -7 1 -11 q2 -16 11.5 -24 q9.5 -8 23.5 -8 q7 0 10 1 l3 0 Z" /><glyph glyph-name="v" unicode="v" d="M156 0 q-9 0 -11 9 l-123 489 l-1 4 q0 7 9 7 l85 0 q10 0 11 -9 l72 -343 q1 -3 2 -3 q1 0 2 3 l71 343 q2 9 11 9 l85 -1 q5 0 7.5 -3 q2.5 -3 0.5 -8 l-122 -488 q-1 -9 -11 -9 l-88 0 Z" /><glyph glyph-name="w" unicode="w" d="M139 0 q-9 0 -11 9 l-107 489 l0 2 q0 9 9 9 l73 0 q10 0 11 -9 l62 -345 q1 -2 2 -2 q1 0 2 2 l63 345 q2 9 11 9 l66 0 q10 0 11 -9 l65 -345 q1 -2 2 -2 q1 0 2 2 l63 345 q2 9 11 9 l72 -1 q5 0 7.5 -3 q2.5 -3 1.5 -8 l-108 -488 q-1 -9 -11 -9 l-75 0 q-9 0 -11 9 l-63 328 q-1 2 -2 2 q-1 0 -2 -2 l-61 -328 q-1 -9 -11 -9 l-72 0 Z" /><glyph glyph-name="x" unicode="x" d="M27 0 q-5 0 -7 3.5 q-2 3.5 0 8.5 l121 239 q2 3 0 6 l-121 240 q-1 2 -1 5 q0 7 8 7 l84 0 q9 0 12 -7 l73 -156 q1 -2 3 -2 q2 0 3 2 l74 156 q3 7 12 7 l83 0 q5 0 7 -3.5 q2 -3.5 0 -8.5 l-120 -240 q-1 -3 0 -6 l120 -239 q1 -2 1 -5 q0 -7 -8 -7 l-83 0 q-9 0 -12 7 l-74 158 q-1 2 -3 2 q-2 0 -3 -2 l-74 -158 q-3 -7 -11 -7 l-84 0 Z" /><glyph glyph-name="y" unicode="y" d="M42 -199 q-2 0 -4 3 q-2 3 -2 7 l0 59 q0 10 10 10 q32 1 50.5 10 q18.5 9 30 34 q11.5 25 19.5 73 l-1 5 l-128 496 l-1 3 q0 8 10 8 l82 0 q10 0 11 -9 l73 -361 q1 -3 2 -3 q1 0 2 3 l72 361 q2 9 11 9 l83 -1 q5 0 7.5 -3 q2.5 -3 0.5 -8 l-137 -532 q-19 -69 -38 -102.5 q-19 -33.5 -52.5 -47.5 q-33.5 -14 -95.5 -14 l-5 0 Z" /><glyph glyph-name="z" unicode="z" d="M38 0 q-10 0 -10 10 l0 70 q0 7 3 13 l187 323 q1 2 0 3.5 q-1 1.5 -3 1.5 l-173 0 q-10 0 -10 10 l0 68 q0 10 10 10 l283 0 q10 0 10 -10 l0 -71 q0 -7 -3 -13 l-192 -323 q-1 -2 0 -3.5 q1 -1.5 3 -1.5 l185 0 q10 0 10 -10 l0 -67 q0 -10 -10 -10 l-290 0 Z" /><glyph glyph-name="ordfeminine" unicode="ª" d="M179 564 q4 0 4 4 l0 24 q0 28 -12 44 q-12 16 -34 16 q-16 0 -28.5 -9.5 q-12.5 -9.5 -16.5 -24.5 q-1 -9 -11 -9 l-45 2 q-5 0 -7.5 3 q-2.5 3 -1.5 8 q4 38 34.5 62 q30.5 24 74.5 24 q52 0 82.5 -29.5 q30.5 -29.5 30.5 -79.5 l0 -222 q0 -10 -10 -10 l-46 0 q-10 0 -10 10 l0 8 q0 2 -1.5 3 q-1.5 1 -3.5 -1 q-21 -25 -62 -25 q-39 0 -68.5 21.5 q-29.5 21.5 -29.5 77.5 q0 57 32.5 80 q32.5 23 90.5 23 l38 0 ZM128 415 q23 0 39 14 q16 14 16 39 l0 40 q0 4 -4 4 l-38 0 q-26 0 -41.5 -13.5 q-15.5 -13.5 -15.5 -38.5 q0 -23 12 -34 q12 -11 32 -11 ZM18 308 q0 10 10 10 l221 0 q10 0 10 -10 l0 -37 q0 -10 -10 -10 l-221 0 q-10 0 -10 10 l0 37 Z" /><glyph glyph-name="ordmasculine" unicode="º" d="M142 361 q-53 0 -83 28.5 q-30 28.5 -30 77.5 l0 136 q0 47 30.5 76 q30.5 29 82.5 29 q52 0 82.5 -29 q30.5 -29 30.5 -76 l0 -136 q0 -49 -30.5 -77.5 q-30.5 -28.5 -82.5 -28.5 ZM142 417 q20 0 34 15.5 q14 15.5 14 38.5 l0 127 q0 23 -14 38.5 q-14 15.5 -34 15.5 q-21 0 -35 -15.5 q-14 -15.5 -14 -38.5 l0 -127 q0 -23 14 -38.5 q14 -15.5 35 -15.5 ZM32 261 q-10 0 -10 10 l0 37 q0 10 10 10 l221 0 q10 0 10 -10 l0 -37 q0 -10 -10 -10 l-221 0 Z" /><glyph glyph-name="uni0394" unicode="&#x394;" d="M21 0 q-10 0 -10 10 l0 67 q0 4 2 12 l205 603 q3 8 12 8 l53 0 q9 0 12 -8 l206 -604 q2 -8 2 -12 l0 -66 q0 -10 -10 -10 l-472 0 ZM106 88 q-1 -2 0.5 -3.5 q1.5 -1.5 3.5 -1.5 l294 0 q2 0 3.5 1.5 q1.5 1.5 0.5 3.5 l-148 482 q-1 2 -3 2 q-2 0 -3 -2 l-148 -482 Z" /><glyph glyph-name="uni03A9" unicode="&#x3a9;" d="M58 0 q-10 0 -10 10 l0 63 q0 10 10 10 l49 0 q5 0 2 5 q-48 46 -48 123 l0 313 q0 83 50.5 133.5 q50.5 50.5 132.5 50.5 q83 0 133.5 -50.5 q50.5 -50.5 50.5 -133.5 l0 -313 q0 -77 -49 -123 q-3 -5 2 -5 l48 0 q10 0 10 -10 l0 -63 q0 -10 -10 -10 l-154 0 q-10 0 -10 10 l0 64 q0 8 9 11 q24 7 41 32.5 q17 25.5 17 60.5 l0 351 q0 43 -24 69.5 q-24 26.5 -64 26.5 q-39 0 -63 -26.5 q-24 -26.5 -24 -69.5 l0 -351 q0 -35 16.5 -60 q16.5 -25 40.5 -32 q9 -3 9 -11 l0 -65 q0 -10 -10 -10 l-155 0 Z" /><glyph glyph-name="pi" unicode="&#x3c0;" d="M490 437 q0 -10 -10 -10 l-47 0 q-4 0 -4 -4 l0 -291 q0 -32 10.5 -40.5 q10.5 -8.5 32.5 -7.5 q10 0 10 -10 l0 -64 q0 -10 -10 -10 q-44 -1 -71.5 2.5 q-27.5 3.5 -48 22 q-20.5 18.5 -20.5 59.5 l0 339 q0 4 -4 4 l-135 0 q-4 0 -4 -4 l0 -413 q0 -10 -10 -10 l-76 0 q-10 0 -10 10 l0 413 q0 4 -4 4 l-50 0 q-10 0 -10 10 l0 62 q0 10 10 10 l441 0 q10 0 10 -10 l0 -62 Z" /><glyph glyph-name="zero" unicode="0" d="M223 -10 q-81 0 -130 51 q-49 51 -49 136 l0 346 q0 85 49 136 q49 51 130 51 q81 0 130.5 -51 q49.5 -51 49.5 -136 l0 -346 q0 -85 -49.5 -136 q-49.5 -51 -130.5 -51 ZM223 73 q38 0 61 27 q23 27 23 71 l0 358 q0 44 -23 71 q-23 27 -61 27 q-37 0 -60 -27 q-23 -27 -23 -71 l0 -358 q0 -44 23 -71 q23 -27 60 -27 Z" /><glyph glyph-name="one" unicode="1" d="M113 697 q6 3 12 3 l80 0 q10 0 10 -10 l0 -680 q0 -10 -10 -10 l-76 0 q-10 0 -10 10 l0 585 q0 2 -1.5 3.5 q-1.5 1.5 -2.5 0.5 l-89 -23 l-4 -1 q-6 0 -8 9 l-4 56 q0 9 7 12 l96 45 Z" /><glyph glyph-name="two" unicode="2" d="M149 88 q-1 -2 0 -3.5 q1 -1.5 3 -1.5 l229 0 q10 0 10 -10 l0 -63 q0 -10 -10 -10 l-336 0 q-10 0 -10 10 l0 66 q0 8 4 13 l31 46 q95 137 147 222 q60 102 60 170 q0 45 -20.5 71.5 q-20.5 26.5 -53.5 26.5 q-33 0 -53 -26 q-20 -26 -19 -69 l0 -40 q0 -10 -10 -10 l-78 0 q-10 0 -10 10 l0 43 q3 79 51 127 q48 48 123 48 q75 0 121 -50 q46 -50 46 -132 q0 -49 -17.5 -99.5 q-17.5 -50.5 -53.5 -108.5 q-25 -40 -105 -159 l-49 -71 Z" /><glyph glyph-name="three" unicode="3" d="M362 316 q11 -49 11 -101 q0 -50 -9 -91 q-14 -64 -53 -98 q-39 -34 -107 -34 q-70 0 -114.5 38 q-44.5 38 -52.5 104 q-5 37 -5 71 q0 10 10 10 l76 0 q10 0 10 -10 q2 -41 5 -58 q6 -34 24.5 -52.5 q18.5 -18.5 46.5 -18.5 q56 0 71 65 q6 38 6 84 q0 54 -9 94 q-8 28 -25.5 43.5 q-17.5 15.5 -42.5 15.5 q-13 0 -27 -9 q-3 -3 -7 -3 q-4 0 -7 4 l-38 39 q-5 7 -1 14 l130 189 q1 1 0 3 q-1 2 -3 2 l-202 0 q-10 0 -10 10 l0 63 q0 10 10 10 l312 0 q10 0 10 -10 l0 -66 q0 -8 -4 -13 l-117 -172 q-3 -3 2 -5 q40 -6 68.5 -37.5 q28.5 -31.5 41.5 -80.5 Z" /><glyph glyph-name="four" unicode="4" d="M411 273 q10 0 10 -10 l0 -67 q0 -10 -10 -10 l-32 0 q-4 0 -4 -4 l0 -172 q0 -10 -10 -10 l-76 0 q-10 0 -10 10 l0 172 q0 4 -4 4 l-246 0 q-10 0 -10 10 l0 56 q0 4 2 12 l144 428 q3 8 12 8 l82 0 q11 0 8 -11 l-136 -411 q-1 -2 0.5 -3.5 q1.5 -1.5 3.5 -1.5 l140 0 q4 0 4 4 l0 137 q0 10 10 10 l76 0 q10 0 10 -10 l0 -137 q0 -4 4 -4 l32 0 Z" /><glyph glyph-name="five" unicode="5" d="M380 299 q8 -38 8 -84 q0 -38 -5 -76 q-7 -71 -51 -109 q-44 -38 -116 -38 q-70 0 -113 37 q-43 37 -54 110 l-3 30 q0 10 10 10 l76 0 q10 0 10 -10 l3 -22 q13 -72 71 -72 q28 0 46 18 q18 18 24 52 q6 30 6 70 q0 42 -8 74 q-7 30 -24.5 46 q-17.5 16 -43.5 16 q-59 0 -73 -57 q-3 -9 -11 -9 l-77 0 q-10 0 -10 10 l0 395 q0 10 10 10 l309 0 q10 0 10 -10 l0 -63 q0 -10 -10 -10 l-219 0 q-4 0 -4 -4 l0 -220 q0 -2 1.5 -2.5 q1.5 -0.5 3.5 1.5 q16 20 41 31.5 q25 11.5 56 11.5 q57 0 92.5 -35.5 q35.5 -35.5 44.5 -100.5 Z" /><glyph glyph-name="six" unicode="6" d="M382 293 q7 -38 7 -78 q0 -27 -4 -69 q-6 -74 -50 -114 q-44 -40 -118 -40 q-68 0 -111.5 37 q-43.5 37 -53.5 109 q-6 30 -6 70 l-1 326 q0 79 47 126.5 q47 47.5 124 47.5 q71 0 116.5 -47.5 q45.5 -47.5 45.5 -126.5 l0 -22 q0 -10 -10 -10 l-76 0 q-10 0 -10 10 l0 18 q0 41 -19 66.5 q-19 25.5 -47 25.5 q-33 0 -53.5 -25.5 q-20.5 -25.5 -20.5 -66.5 l0 -110 q0 -5 5 -2 q29 29 73 29 q68 0 111 -42 q43 -42 51 -112 ZM288 154 q4 32 4 67 q0 31 -7 78 q-14 65 -69 65 q-55 0 -69 -68 q-5 -32 -5 -75 q0 -39 4 -72 q14 -74 70 -74 q29 0 47.5 20 q18.5 20 24.5 59 Z" /><glyph glyph-name="seven" unicode="7" d="M104 0 q-5 0 -7.5 3 q-2.5 3 -1.5 8 l169 602 q1 1 -0.5 2.5 q-1.5 1.5 -3.5 1.5 l-158 0 q-4 0 -4 -4 l0 -40 q0 -10 -10 -10 l-59 0 q-10 0 -10 10 l1 117 q0 10 10 10 l326 0 q10 0 10 -10 l0 -67 q0 -2 -2 -12 l-169 -603 q-2 -8 -11 -8 l-80 0 Z" /><glyph glyph-name="eight" unicode="8" d="M311 372 q-5 -3 0 -6 q36 -20 52 -57 q21 -47 21 -111 q0 -54 -14 -94 q-19 -53 -59.5 -82.5 q-40.5 -29.5 -96.5 -29.5 q-55 0 -95.5 29 q-40.5 29 -59.5 82 q-15 42 -15 95 q0 61 18 104 q17 43 56 63 q4 3 0 6 q-36 22 -53 57 q-21 41 -21 98 q0 59 21 99 q20 41 59 63.5 q39 22.5 90 22.5 q50 0 88.5 -21.5 q38.5 -21.5 59.5 -62.5 q22 -41 22 -101 q0 -57 -20 -97 q-17 -35 -53 -57 ZM151 580 q-12 -25 -12 -62 q0 -39 12 -65 q8 -23 24.5 -35 q16.5 -12 38.5 -12 q23 0 40 13 q17 13 25 37 q11 27 11 62 q0 39 -14 65 q-18 45 -62 45 q-45 0 -63 -48 ZM283 143 q6 26 6 60 q0 43 -11 74 q-7 26 -24 40 q-17 14 -40 14 q-24 0 -41 -14.5 q-17 -14.5 -25 -42.5 q-9 -28 -9 -70 q0 -37 7 -64 q8 -31 25.5 -48 q17.5 -17 42.5 -17 q26 0 44 18 q18 18 25 50 Z" /><glyph glyph-name="nine" unicode="9" d="M369 166 q0 -79 -47 -126.5 q-47 -47.5 -124 -47.5 q-71 0 -116.5 47.5 q-45.5 47.5 -45.5 126.5 l0 22 q0 10 10 10 l76 0 q10 0 10 -10 l0 -18 q0 -40 19 -66 q19 -26 47 -26 q33 0 53.5 25.5 q20.5 25.5 20.5 66.5 l0 110 q0 5 -5 2 q-29 -29 -73 -29 q-67 0 -110.5 42.5 q-43.5 42.5 -51.5 111.5 q-6 33 -6 78 q0 38 3 69 q6 74 50 114 q44 40 118 40 q69 0 112 -37 q43 -37 53 -109 q6 -30 6 -70 l1 -326 ZM267 404 q5 33 5 75 q0 39 -4 72 q-14 74 -70 74 q-29 0 -47.5 -20 q-18.5 -20 -24.5 -59 q-3 -36 -3 -67 q0 -37 6 -78 q14 -65 69 -65 q55 0 69 68 Z" /><glyph glyph-name="fraction" unicode="&#x2044;" d="M-125 0 q-6 0 -8 3.5 q-2 3.5 1 8.5 l424 681 q5 7 12 7 l49 0 q6 0 8 -3.5 q2 -3.5 -1 -8.5 l-424 -681 q-5 -7 -12 -7 l-49 0 Z" /><glyph glyph-name="comma" unicode="," d="M45 -86 q-5 0 -8 3.5 q-3 3.5 -2 7.5 l29 222 q1 9 10 9 l66 0 q11 0 9 -11 l-48 -222 q-1 -9 -11 -9 l-45 0 Z" /><glyph glyph-name="semicolon" unicode=";" d="M104 335 q-29 0 -47.5 20 q-18.5 20 -18.5 49 q0 28 20 48.5 q20 20.5 46 20.5 q25 0 45 -20.5 q20 -20.5 20 -48.5 q0 -29 -18.5 -49 q-18.5 -20 -46.5 -20 ZM52 -83 q-5 0 -8 3 q-3 3 -2 7 l20 216 q1 10 11 10 l66 0 q5 0 7.5 -3 q2.5 -3 1.5 -8 l-39 -216 q-1 -9 -11 -9 l-46 0 Z" /><glyph glyph-name="exclam" unicode="!" d="M102 232 q-10 0 -10 10 l-9 448 q0 10 10 10 l76 0 q10 0 10 -10 l-10 -448 q0 -10 -10 -10 l-57 0 ZM131 3 q-28 0 -46 18 q-18 18 -18 46 q0 29 18 46.5 q18 17.5 46 17.5 q28 0 46 -18 q18 -18 18 -46 q0 -28 -18 -46 q-18 -18 -46 -18 Z" /><glyph glyph-name="exclamdown" unicode="¡" d="M131 708 q28 0 46 -18 q18 -18 18 -46 q0 -28 -18 -46 q-18 -18 -46 -18 q-28 0 -46 18 q-18 18 -18 46 q0 28 18 46 q18 18 46 18 ZM92 468 q0 10 10 10 l57 0 q10 0 10 -10 l10 -447 q0 -10 -10 -10 l-76 0 q-10 0 -10 10 l9 447 Z" /><glyph glyph-name="question" unicode="?" d="M145 208 q-10 0 -10 10 l0 50 q0 45 18 74 q18 29 53 62 q32 30 48.5 55.5 q16.5 25.5 16.5 64.5 q0 45 -20 71.5 q-20 26.5 -53 26.5 q-36 0 -57 -27.5 q-21 -27.5 -21 -72.5 l0 -26 q0 -10 -10 -10 l-76 4 q-10 0 -10 10 l0 22 q0 84 48.5 135.5 q48.5 51.5 127.5 51.5 q76 0 122 -49.5 q46 -49.5 46 -132.5 q0 -44 -12 -76 q-12 -32 -28.5 -52 q-16.5 -20 -42.5 -45 q-28 -26 -41 -45 q-13 -19 -13 -46 l0 -45 q0 -10 -10 -10 l-76 0 ZM184 1 q-28 0 -46 18 q-18 18 -18 46 q0 28 18 46 q18 18 46 18 q28 0 46 -18 q18 -18 18 -46 q0 -28 -18.5 -46 q-18.5 -18 -45.5 -18 Z" /><glyph glyph-name="questiondown" unicode="¿" d="M210 499 q28 0 46 -18 q18 -18 18 -46 q0 -28 -18 -46 q-18 -18 -46 -18 q-28 0 -46 18 q-18 18 -18 46 q0 28 18 46 q18 18 46 18 ZM249 292 q10 0 10 -10 l0 -50 q0 -45 -18 -74 q-18 -29 -53 -62 q-33 -30 -49.5 -55.5 q-16.5 -25.5 -16.5 -64.5 q0 -45 20.5 -71.5 q20.5 -26.5 53.5 -26.5 q36 0 57 27.5 q21 27.5 21 72.5 l0 26 q0 10 10 10 l76 -4 q10 0 10 -10 l0 -22 q0 -84 -49 -135.5 q-49 -51.5 -127 -51.5 q-77 0 -122.5 49.5 q-45.5 49.5 -45.5 132.5 q0 44 12 76 q12 32 28.5 52 q16.5 20 42.5 45 q28 26 41 45 q13 19 13 46 l0 45 q0 10 10 10 l76 0 Z" /><glyph glyph-name="bullet" unicode="&#x2022;" d="M150 150 q-50 0 -85.5 35.5 q-35.5 35.5 -35.5 85.5 q0 50 35.5 84.5 q35.5 34.5 85.5 34.5 q50 0 85 -34.5 q35 -34.5 35 -84.5 q0 -50 -35 -85.5 q-35 -35.5 -85 -35.5 Z" /><glyph glyph-name="asterisk" unicode="*" d="M162 395 q-10 0 -10 10 l0 107 q0 2 -1.5 3 q-1.5 1 -3.5 0 l-90 -55 l-5 -2 q-5 0 -9 6 l-19 33 q-2 4 -2 6 q0 6 5 8 l94 56 q2 1 2 3 q0 2 -2 3 l-94 56 q-8 5 -3 14 l19 34 q6 10 14 4 l90 -56 q2 -1 3.5 0 q1.5 1 1.5 3 l0 108 q0 10 10 10 l38 0 q10 0 10 -10 l-1 -108 q0 -3 1.5 -4 q1.5 -1 3.5 1 l90 56 l5 2 q5 0 9 -6 l19 -34 q2 -4 2 -6 q0 -5 -5 -8 l-94 -56 q-1 -1 -1 -3 q0 -2 1 -3 l94 -56 q8 -5 3 -14 l-19 -34 q-6 -10 -14 -4 l-90 56 q-2 2 -3.5 1 q-1.5 -1 -1.5 -4 l1 -107 q0 -10 -10 -10 l-38 0 Z" /><glyph glyph-name="numbersign" unicode="#" d="M551 430 q0 -10 -10 -10 l-64 0 q-5 0 -5 -4 l-19 -138 q0 -4 3 -4 l52 0 q10 0 10 -10 l0 -63 q0 -10 -10 -10 l-65 0 q-5 0 -5 -4 l-23 -158 q-1 -9 -10 -9 l-76 1 q-4 0 -7 3 q-3 3 -2 8 l22 155 q0 4 -3 4 l-124 0 q-5 0 -5 -4 l-23 -158 q-1 -9 -10 -9 l-76 1 q-4 0 -7 3 q-3 3 -2 8 l22 155 q0 4 -3 4 l-53 0 q-10 0 -10 10 l0 63 q0 10 10 10 l66 0 q5 0 5 4 l19 138 q0 4 -3 4 l-54 0 q-10 0 -10 10 l0 64 q0 10 10 10 l67 0 q5 0 5 4 l23 158 q1 9 10 9 l76 -1 q4 0 7 -3 q3 -3 2 -8 l-22 -155 q0 -4 3 -4 l124 0 q5 0 5 4 l23 158 q1 9 10 9 l76 -1 q4 0 7 -3 q3 -3 2 -8 l-22 -155 q0 -4 3 -4 l51 0 q10 0 10 -10 l0 -64 ZM352 274 q5 0 5 4 l19 138 q0 4 -3 4 l-124 0 q-5 0 -5 -4 l-19 -138 q0 -4 3 -4 l124 0 Z" /><glyph glyph-name="slash" unicode="/" d="M31 0 q-5 0 -7.5 3 q-2.5 3 -1.5 8 l195 681 q3 8 11 8 l75 0 q5 0 7.5 -3 q2.5 -3 1.5 -8 l-195 -681 q-3 -8 -11 -8 l-75 0 Z" /><glyph glyph-name="backslash" unicode="\" d="M342 8 q0 -8 -10 -8 l-75 0 q-8 0 -11 8 l-195 681 l-1 3 q0 8 10 8 l75 0 q8 0 11 -8 l195 -681 l1 -3 Z" /><glyph glyph-name="parenleft" unicode="(" d="M107 -100 q-8 0 -12 7 q-43 76 -69.5 185.5 q-26.5 109.5 -26.5 235.5 q0 128 27 239.5 q27 111.5 71 187.5 q4 7 12 7 l73 0 q5 0 7.5 -3.5 q2.5 -3.5 0.5 -8.5 q-36 -82 -59.5 -190.5 q-23.5 -108.5 -23.5 -230.5 q0 -121 23.5 -228.5 q23.5 -107.5 59.5 -188.5 l1 -4 q0 -8 -9 -8 l-75 0 Z" /><glyph glyph-name="parenright" unicode=")" d="M147 762 q8 0 12 -7 q43 -76 69.5 -186 q26.5 -110 26.5 -235 q0 -128 -27 -239.5 q-27 -111.5 -71 -187.5 q-4 -7 -12 -7 l-74 0 q-5 0 -7.5 3.5 q-2.5 3.5 -0.5 8.5 q36 81 60 190 q24 109 24 231 q0 121 -24 229 q-24 108 -60 188 l-1 4 q0 8 9 8 l76 0 Z" /><glyph glyph-name="braceleft" unicode="{" d="M198 -130 q-108 0 -108 117 l0 213 q0 42 -13.5 63.5 q-13.5 21.5 -40.5 26.5 q-9 2 -9 11 l0 57 q0 10 9 11 q54 9 54 89 l0 208 q0 118 108 118 l64 0 q10 0 10 -10 l0 -64 q0 -10 -10 -10 l-24 0 q-25 0 -38.5 -18 q-13.5 -18 -13.5 -52 l0 -182 q0 -46 -12.5 -74 q-12.5 -28 -38.5 -42 q-5 -2 0 -5 q51 -27 51 -116 l0 -187 q0 -34 13.5 -52.5 q13.5 -18.5 38.5 -18.5 l24 0 q10 0 10 -10 l0 -63 q0 -10 -10 -10 l-64 0 Z" /><glyph glyph-name="braceright" unicode="}" d="M37 -130 q-10 0 -10 10 l0 63 q0 10 10 10 l23 0 q26 0 39.5 18.5 q13.5 18.5 13.5 52.5 l0 187 q0 46 12.5 74.5 q12.5 28.5 38.5 41.5 q5 3 0 5 q-26 14 -38.5 42 q-12.5 28 -12.5 74 l0 182 q0 34 -13.5 52 q-13.5 18 -39.5 18 l-23 0 q-10 0 -10 10 l0 64 q0 10 10 10 l63 0 q109 0 109 -118 l0 -208 q0 -41 13 -63 q13 -22 41 -26 q9 -1 9 -11 l0 -57 q0 -9 -9 -11 q-28 -4 -41 -26 q-13 -22 -13 -64 l0 -213 q0 -117 -109 -117 l-63 0 Z" /><glyph glyph-name="bracketleft" unicode="[" d="M37 -130 q-10 0 -10 10 l0 894 q0 10 10 10 l174 0 q10 0 10 -10 l0 -64 q0 -10 -10 -10 l-84 0 q-4 0 -4 -4 l0 -739 q0 -4 4 -4 l85 0 q10 0 10 -10 l0 -63 q0 -10 -10 -10 l-175 0 Z" /><glyph glyph-name="bracketright" unicode="]" d="M291 -120 q0 -10 -10 -10 l-175 0 q-10 0 -10 10 l0 63 q0 10 10 10 l85 0 q4 0 4 4 l0 739 q0 4 -4 4 l-84 0 q-10 0 -10 10 l0 64 q0 10 10 10 l174 0 q10 0 10 -10 l0 -894 Z" /><glyph glyph-name="hyphen" unicode="-" d="M39 264 q-10 0 -10 10 l0 63 q0 10 10 10 l242 0 q10 0 10 -10 l0 -63 q0 -10 -10 -10 l-242 0 Z" /><glyph glyph-name="endash" unicode="&#x2013;" d="M39 242 q-10 0 -10 10 l0 63 q0 10 10 10 l297 0 q10 0 10 -10 l0 -63 q0 -10 -10 -10 l-297 0 Z" /><glyph glyph-name="emdash" unicode="&#x2014;" d="M39 242 q-10 0 -10 10 l0 63 q0 10 10 10 l514 0 q10 0 10 -10 l0 -63 q0 -10 -10 -10 l-514 0 Z" /><glyph glyph-name="underscore" unicode="_" d="M29 0 q-10 0 -10 10 l0 55 q0 10 10 10 l334 0 q10 0 10 -10 l0 -55 q0 -10 -10 -10 l-334 0 Z" /><glyph glyph-name="quotedblleft" unicode="&#x201c;" d="M12 488 q-11 0 -8 11 l67 193 q3 8 12 8 l54 0 q11 0 8 -11 l-48 -192 q-1 -9 -11 -9 l-74 0 ZM152 488 q-11 0 -8 11 l65 193 q3 8 12 8 l55 0 q11 0 8 -11 l-47 -192 q-1 -9 -11 -9 l-74 0 Z" /><glyph glyph-name="quotedblright" unicode="&#x201d;" d="M135 700 q11 0 8 -11 l-66 -193 q-3 -8 -12 -8 l-54 0 q-11 0 -8 11 l47 192 q2 9 11 9 l74 0 ZM275 700 q11 0 8 -11 l-67 -193 q-3 -8 -12 -8 l-54 0 q-11 0 -8 11 l48 192 q2 9 11 9 l74 0 Z" /><glyph glyph-name="quoteleft" unicode="&#x2018;" d="M12 488 q-11 0 -8 11 l63 193 q3 8 12 8 l56 0 q5 0 7.5 -3 q2.5 -3 1.5 -8 l-44 -192 q-2 -9 -11 -9 l-77 0 Z" /><glyph glyph-name="quoteright" unicode="&#x2019;" d="M134 700 q11 0 8 -11 l-62 -193 q-3 -8 -12 -8 l-57 0 q-5 0 -7.5 3 q-2.5 3 -0.5 8 l44 192 q2 9 11 9 l76 0 Z" /><glyph glyph-name="guillemotleft" unicode="«" d="M245 119 q2 -4 2 -6 q0 -6 -9 -6 l-70 0 q-7 0 -12 7 l-96 160 q-2 3 -2 7 q0 4 2 7 l96 160 q5 7 12 7 l70 0 q6 0 8 -3.5 q2 -3.5 -1 -8.5 l-96 -159 q-1 -3 0 -6 l96 -159 ZM399 119 q2 -4 2 -6 q0 -6 -9 -6 l-71 0 q-7 0 -12 7 l-95 160 q-2 3 -2 7 q0 4 2 7 l95 160 q5 7 12 7 l71 0 q6 0 8 -3.5 q2 -3.5 -1 -8.5 l-97 -159 q-1 -3 0 -6 l97 -159 Z" /><glyph glyph-name="guilsinglleft" unicode="&#x2039;" d="M234 119 q2 -4 2 -6 q0 -6 -9 -6 l-70 0 q-7 0 -12 7 l-96 160 q-2 3 -2 7 q0 4 2 7 l96 160 q5 7 12 7 l70 0 q6 0 8 -3.5 q2 -3.5 -1 -8.5 l-97 -159 q-1 -3 0 -6 l97 -159 Z" /><glyph glyph-name="guilsinglright" unicode="&#x203a;" d="M76 107 q-6 0 -8 3.5 q-2 3.5 1 8.5 l96 159 q2 3 0 6 l-96 159 q-2 4 -2 6 q0 6 9 6 l70 0 q7 0 12 -7 l96 -160 q2 -3 2 -7 q0 -4 -2 -7 l-96 -160 q-5 -7 -12 -7 l-70 0 Z" /><glyph glyph-name="quotedbl" unicode="&quot;" d="M40 482 q-11 0 -11 10 l-9 194 q0 10 9 10 l73 0 q10 0 10 -10 l-10 -194 q0 -10 -10 -10 l-52 0 ZM181 482 q-10 0 -10 10 l-9 194 q0 10 9 10 l73 0 q9 0 9 -10 l-10 -194 q0 -10 -10 -10 l-52 0 Z" /><glyph glyph-name="quotesingle" unicode="&#39;" d="M39 486 q-10 0 -10 10 l-9 192 q0 10 9 10 l78 0 q9 0 9 -10 l-10 -192 q0 -10 -10 -10 l-57 0 Z" /><glyph glyph-name="uni27E9" unicode="&#x27e9;" d="M74 -93 q-5 0 -7.5 3 q-2.5 3 -1.5 8 l107 360 l0 6 l-107 360 l-1 3 q0 8 10 8 l60 0 q8 0 11 -8 l105 -360 q2 -6 0 -12 l-105 -360 q-3 -8 -11 -8 l-60 0 Z" /><glyph glyph-name="uni00A0" unicode=" " d="" /><glyph glyph-name="cent" unicode="¢" d="M380 446 q0 -10 -10 -10 l-76 -3 q-10 0 -10 10 l0 10 q0 29 -21 50 q-21 21 -52 21 q-32 0 -52 -23 q-20 -23 -20 -59 l0 -195 q0 -36 20 -59 q20 -23 52 -23 q31 0 52 21 q21 21 21 50 l0 10 q0 10 10 10 l76 -1 q10 0 10 -10 l0 -15 q0 -56 -34 -94.5 q-34 -38.5 -92 -49.5 q-4 -1 -4 -5 l2 -70 q0 -10 -10 -10 l-62 0 q-10 0 -10 10 l2 70 q0 4 -4 5 q-58 11 -91.5 52 q-33.5 41 -33.5 103 l0 207 q0 60 33.5 101.5 q33.5 41.5 91.5 53.5 q4 1 4 5 l-2 70 q0 10 10 10 l62 0 q10 0 10 -10 l-2 -70 q0 -4 4 -5 q58 -11 92 -50.5 q34 -39.5 34 -93.5 l0 -13 Z" /><glyph glyph-name="currency" unicode="¤" d="M469 302 q0 -61 -33 -110 q-2 -3 1 -6 l66 -66 q3 -3 3 -6 q0 -4 -4 -8 l-47 -41 q-3 -3 -6 -3 q-4 0 -8 4 l-63 62 q-3 3 -6 1 q-47 -32 -110 -32 q-60 0 -106 29 q-3 2 -6 -1 l-60 -59 q-7 -7 -14 -1 l-47 41 q-7 8 -1 14 l62 61 q3 3 1 6 q-36 52 -36 115 q0 60 32 110 q2 3 -1 6 l-65 65 q-3 3 -3 6 q0 4 4 8 l48 42 q3 3 6 3 q4 0 8 -4 l61 -61 q3 -3 6 -1 q51 32 111 32 q63 0 114 -35 q3 -2 6 1 l65 64 q8 8 14 1 l48 -42 q8 -7 1 -14 l-70 -69 q-3 -3 -1 -6 q30 -49 30 -106 ZM138 302 q0 -51 36.5 -87 q36.5 -36 87.5 -36 q51 0 87 35.5 q36 35.5 37 87.5 q-1 51 -37.5 87 q-36.5 36 -86.5 36 q-51 0 -87.5 -36 q-36.5 -36 -36.5 -87 Z" /><glyph glyph-name="dollar" unicode="$" d="M391 177 q0 -72 -36.5 -120 q-36.5 -48 -98.5 -61 q-4 -1 -4 -5 l1 -66 q0 -10 -10 -10 l-53 0 q-10 0 -10 10 l1 66 q0 4 -4 5 q-64 11 -101.5 58 q-37.5 47 -37.5 117 l0 26 q0 10 10 10 l74 0 q10 0 10 -10 l0 -21 q0 -46 23 -73.5 q23 -27.5 59 -27.5 q36 0 59.5 26.5 q23.5 26.5 23.5 69.5 q0 29 -12.5 51 q-12.5 22 -33 39.5 q-20.5 17.5 -66.5 51.5 q-51 38 -80 65 q-29 27 -49 65 q-20 38 -20 89 q0 72 37.5 117.5 q37.5 45.5 101.5 55.5 q4 1 4 5 l-1 71 q0 10 10 10 l52 0 q10 0 10 -10 l-1 -73 q0 -4 4 -5 q62 -13 97.5 -61 q35.5 -48 35.5 -119 l0 -25 q0 -10 -10 -10 l-74 0 q-10 0 -10 10 l0 27 q0 45 -23 72.5 q-23 27.5 -60 27.5 q-35 0 -57 -24.5 q-22 -24.5 -22 -68.5 q0 -40 22 -67.5 q22 -27.5 85 -73.5 q60 -45 90.5 -73 q30.5 -28 47 -61.5 q16.5 -33.5 16.5 -79.5 Z" /><glyph glyph-name="Euro" unicode="&#x20ac;" d="M282 75 q29 0 48 20.5 q19 20.5 22 55.5 q2 11 11 9 l74 -11 q10 -2 9 -11 q-9 -68 -53 -107 q-44 -39 -111 -39 q-75 0 -120.5 49.5 q-45.5 49.5 -45.5 131.5 l0 88 q0 4 -4 4 l-54 0 q-10 0 -10 10 l0 34 q0 10 10 10 l54 0 q4 0 4 4 l0 52 q0 4 -4 4 l-54 0 q-10 0 -10 10 l0 33 q0 10 10 10 l54 0 q4 0 4 4 l0 92 q0 82 45.5 131 q45.5 49 120.5 49 q69 0 113 -40 q44 -40 52 -110 l0 -2 q0 -7 -9 -9 l-75 -10 l-2 0 q-7 0 -9 10 q-3 35 -22 56.5 q-19 21.5 -48 21.5 q-32 0 -51 -25 q-19 -25 -19 -66 l0 -98 q0 -4 4 -4 l161 0 q11 0 8 -11 l-11 -34 q-3 -8 -12 -8 l-146 0 q-4 0 -4 -4 l0 -52 q0 -4 4 -4 l130 0 q11 0 8 -11 l-12 -35 q-3 -8 -12 -8 l-114 0 q-4 0 -4 -4 l0 -95 q0 -41 19 -66 q19 -25 51 -25 Z" /><glyph glyph-name="florin" unicode="&#x192;" d="M235 553 q13 81 49 118.5 q36 37.5 107 37.5 q19 0 43 -3 q5 -1 7.5 -3 q2.5 -2 2.5 -7 l-2 -66 q0 -10 -10 -10 l-26 0 q-35 0 -52.5 -23.5 q-17.5 -23.5 -24.5 -70.5 l-20 -125 q0 -4 3 -4 l67 0 q10 0 10 -10 l0 -50 q0 -10 -10 -10 l-79 0 q-5 0 -5 -4 l-61 -376 q-13 -80 -49 -118 q-36 -38 -108 -38 q-20 0 -42 3 q-5 1 -7.5 3 q-2.5 2 -2.5 7 l2 66 q0 10 10 10 l25 0 q35 0 52.5 24 q17.5 24 24.5 70 l58 349 q0 4 -3 4 l-53 0 q-10 0 -10 10 l0 50 q0 10 10 10 l64 0 q5 0 5 4 l25 152 Z" /><glyph glyph-name="franc" unicode="&#x20a3;" d="M460 627 q0 -10 -10 -10 l-224 0 q-4 0 -4 -4 l0 -217 q0 -4 4 -4 l137 0 q10 0 10 -10 l0 -63 q0 -10 -10 -10 l-137 0 q-4 0 -4 -4 l0 -108 q0 -4 4 -4 l99 0 q10 0 10 -10 l0 -41 q0 -10 -10 -10 l-99 0 q-4 0 -4 -4 l0 -118 q0 -10 -10 -10 l-76 0 q-10 0 -10 10 l0 118 q0 4 -4 4 l-50 0 q-10 0 -10 10 l0 41 q0 10 10 10 l50 0 q4 0 4 4 l0 493 q0 10 10 10 l314 0 q10 0 10 -10 l0 -63 Z" /><glyph glyph-name="sterling" unicode="£" d="M198 88 q-3 -5 2 -5 l269 0 q10 0 10 -10 l0 -63 q0 -10 -10 -10 l-368 0 q-10 0 -10 10 l0 65 q0 7 6 13 q17 16 26.5 44.5 q9.5 28.5 9.5 66.5 l0 98 q0 4 -4 4 l-57 0 q-10 0 -10 10 l0 58 q0 10 10 10 l57 0 q4 0 4 4 l0 121 q0 96 47 150 q47 54 128 54 q64 0 105 -37.5 q41 -37.5 57 -109.5 l0 -2 q0 -7 -8 -9 l-72 -10 l-2 0 q-8 0 -10 9 q-10 39 -27.5 57.5 q-17.5 18.5 -44.5 18.5 q-39 0 -59 -30 q-20 -30 -20 -87 l0 -125 q0 -4 4 -4 l141 0 q10 0 10 -10 l0 -58 q0 -10 -10 -10 l-141 0 q-4 0 -4 -4 l0 -96 q0 -37 -8 -66 q-8 -29 -21 -47 Z" /><glyph glyph-name="uni20BA" unicode="&#x20ba;" d="M515 273 q10 0 10 -10 q-2 -106 -67 -177.5 q-65 -71.5 -187 -81.5 q-61 -5 -106 -4 q-10 0 -10 10 l0 289 q0 2 -1.5 3.5 q-1.5 1.5 -3.5 0.5 l-76 -24 l-4 -1 q-6 0 -9 8 l-10 36 l-1 5 q0 6 7 8 l95 29 q3 2 3 4 l0 54 q0 2 -1.5 3.5 q-1.5 1.5 -3.5 0.5 l-76 -24 l-4 -1 q-6 0 -9 8 l-10 35 l-1 5 q0 6 7 8 l95 29 q3 2 3 4 l0 200 q0 10 10 10 l76 0 q10 0 10 -10 l0 -169 q0 -2 1.5 -3.5 q1.5 -1.5 3.5 -0.5 l125 39 l4 1 q6 0 9 -8 l11 -36 l1 -4 q0 -6 -8 -9 l-144 -43 q-3 -1 -3 -4 l0 -54 q0 -2 1.5 -3.5 q1.5 -1.5 3.5 -0.5 l125 39 l4 1 q6 0 9 -8 l11 -36 l1 -4 q0 -6 -8 -9 l-144 -44 q-3 -1 -3 -4 l0 -243 q0 -4 4 -4 q82 6 127 53.5 q45 47.5 47 126.5 q0 10 10 10 l76 0 Z" /><glyph glyph-name="uni20BD" unicode="&#x20bd;" d="M228 304 q-4 0 -4 -4 l0 -73 q0 -4 4 -4 l161 0 q10 0 10 -10 l0 -36 q0 -10 -10 -10 l-161 0 q-4 0 -4 -4 l0 -153 q0 -10 -10 -10 l-76 0 q-10 0 -10 10 l0 153 q0 4 -4 4 l-52 0 q-10 0 -10 10 l0 36 q0 10 10 10 l52 0 q4 0 4 4 l0 73 q0 4 -4 4 l-52 0 q-10 0 -10 10 l0 57 q0 10 10 10 l52 0 q4 0 4 4 l0 306 q0 10 10 10 l179 0 q50 0 89.5 -25 q39.5 -25 61 -71 q21.5 -46 21.5 -105 q0 -88 -46.5 -142 q-46.5 -54 -121.5 -54 l-93 0 ZM228 618 q-4 0 -4 -4 l0 -229 q0 -4 4 -4 l74 0 q41 0 66 31.5 q25 31.5 25 85.5 q0 55 -25 87.5 q-25 32.5 -66 32.5 l-74 0 Z" /><glyph glyph-name="yen" unicode="¥" d="M441 700 q11 0 8 -11 l-125 -345 q-1 -2 0 -3.5 q1 -1.5 3 -1.5 l115 0 q10 0 10 -10 l0 -36 q0 -10 -10 -10 l-130 0 q-4 0 -4 -4 l0 -58 q0 -4 4 -4 l130 0 q10 0 10 -10 l0 -36 q0 -10 -10 -10 l-130 0 q-4 0 -4 -4 l0 -146 q0 -10 -10 -10 l-76 0 q-10 0 -10 10 l0 146 q0 4 -4 4 l-127 0 q-10 0 -10 10 l0 36 q0 10 10 10 l127 0 q4 0 4 4 l0 58 q0 4 -4 4 l-127 0 q-10 0 -10 10 l0 36 q0 10 10 10 l112 0 q2 0 3 1.5 q1 1.5 0 3.5 l-124 345 l-1 4 q0 7 9 7 l80 0 q9 0 12 -8 l86 -276 q1 -2 3 -2 q2 0 3 2 l85 276 q3 8 12 8 l80 0 Z" /><glyph glyph-name="uni2219" unicode="&#x2219;" d="M150 185 q-50 0 -85.5 35.5 q-35.5 35.5 -35.5 85.5 q0 50 35.5 85 q35.5 35 85.5 35 q50 0 85 -35 q35 -35 35 -85 q0 -50 -35.5 -85.5 q-35.5 -35.5 -84.5 -35.5 Z" /><glyph glyph-name="uni2215" unicode="&#x2215;" d="M32 0 q-5 0 -7.5 3.5 q-2.5 3.5 -0.5 8.5 l292 680 q3 8 11 8 l68 0 q5 0 7.5 -3.5 q2.5 -3.5 0.5 -8.5 l-291 -680 q-3 -8 -11 -8 l-69 0 Z" /><glyph glyph-name="plus" unicode="+" d="M401 353 q10 0 10 -10 l0 -54 q0 -10 -10 -10 l-140 0 q-4 0 -4 -4 l0 -140 q0 -10 -10 -10 l-54 0 q-10 0 -10 10 l0 140 q0 4 -4 4 l-140 0 q-10 0 -10 10 l0 54 q0 10 10 10 l140 0 q4 0 4 4 l0 140 q0 10 10 10 l54 0 q10 0 10 -10 l0 -140 q0 -4 4 -4 l140 0 Z" /><glyph glyph-name="minus" unicode="&#x2212;" d="M39 277 q-10 0 -10 10 l0 54 q0 10 10 10 l362 0 q10 0 10 -10 l0 -54 q0 -10 -10 -10 l-362 0 Z" /><glyph glyph-name="multiply" unicode="×" d="M344 427 q3 -3 3 -7 q0 -4 -3 -7 l-99 -99 q-3 -3 0 -6 l99 -99 q3 -3 3 -7 q0 -4 -3 -7 l-38 -38 q-3 -3 -7 -3 q-4 0 -7 3 l-99 99 q-3 3 -6 0 l-99 -99 q-3 -3 -7 -3 q-4 0 -7 3 l-38 38 q-3 3 -3 7 q0 4 3 7 l99 99 q3 3 0 6 l-99 99 q-3 3 -3 7 q0 4 3 7 l38 38 q3 3 7 3 q4 0 7 -3 l99 -99 q3 -3 6 0 l99 99 q3 3 7 3 q4 0 7 -3 l38 -38 Z" /><glyph glyph-name="divide" unicode="÷" d="M220 421 q-24 0 -41 17 q-17 17 -17 41 q0 24 17 41 q17 17 41 17 q24 0 41.5 -17 q17.5 -17 17.5 -41 q0 -24 -17.5 -41 q-17.5 -17 -41.5 -17 ZM39 284 q-10 0 -10 10 l0 53 q0 10 10 10 l362 0 q10 0 10 -10 l0 -53 q0 -10 -10 -10 l-362 0 ZM220 107 q-24 0 -41 17 q-17 17 -17 41 q0 23 17 40.5 q17 17.5 41 17.5 q23 0 41 -17.5 q18 -17.5 18 -40.5 q0 -24 -17.5 -41 q-17.5 -17 -41.5 -17 Z" /><glyph glyph-name="notequal" unicode="&#x2260;" d="M411 397 q0 -10 -10 -10 l-125 0 q-2 0 -4 -3 l-53 -116 q-1 -2 0 -3.5 q1 -1.5 3 -1.5 l179 0 q10 0 10 -10 l0 -54 q0 -10 -10 -10 l-214 0 q-2 0 -4 -3 l-40 -86 q-3 -8 -11 -8 l-40 0 q-5 0 -7.5 3.5 q-2.5 3.5 -0.5 8.5 l37 80 q1 2 0 3.5 q-1 1.5 -3 1.5 l-79 0 q-10 0 -10 10 l0 54 q0 10 10 10 l114 0 q3 0 4 3 l53 116 q1 2 0 3.5 q-1 1.5 -3 1.5 l-168 0 q-10 0 -10 10 l0 53 q0 10 10 10 l203 0 q3 0 4 3 l38 83 q3 8 11 8 l41 0 q5 0 7.5 -3.5 q2.5 -3.5 0.5 -8.5 l-36 -77 q-1 -2 0 -3.5 q1 -1.5 3 -1.5 l90 0 q10 0 10 -10 l0 -53 Z" /><glyph glyph-name="greater" unicode="&gt;" d="M36 58 q-3 0 -5 2.5 q-2 2.5 -2 6.5 l0 72 q0 8 7 11 l278 127 q6 3 0 6 l-278 127 q-7 4 -7 11 l0 73 q0 5 3.5 7.5 q3.5 2.5 8.5 -0.5 l363 -174 q7 -4 7 -12 l0 -69 q0 -8 -7 -12 l-363 -174 l-5 -2 Z" /><glyph glyph-name="less" unicode="&lt;" d="M411 67 q0 -5 -3.5 -7.5 q-3.5 -2.5 -8.5 0.5 l-363 174 q-7 4 -7 12 l0 69 q0 8 7 12 l363 174 l5 2 q3 0 5 -2.5 q2 -2.5 2 -6.5 l0 -73 q0 -7 -7 -11 l-278 -127 q-6 -3 0 -6 l278 -127 q7 -3 7 -11 l0 -72 Z" /><glyph glyph-name="lessequal" unicode="&#x2264;" d="M411 132 q0 -5 -3.5 -7.5 q-3.5 -2.5 -8.5 0.5 l-363 174 q-7 4 -7 12 l0 69 q0 8 7 12 l363 174 l5 2 q3 0 5 -2.5 q2 -2.5 2 -6.5 l0 -73 q0 -7 -7 -11 l-278 -127 q-6 -3 0 -6 l277 -126 q8 -4 8 -11 l0 -73 ZM411 32 q0 -10 -10 -10 l-362 0 q-10 0 -10 10 l0 54 q0 10 10 10 l362 0 q10 0 10 -10 l0 -54 Z" /><glyph glyph-name="logicalnot" unicode="¬" d="M401 351 q10 0 10 -10 l0 -58 l0 -6 l-1 -2 l0 -93 q0 -10 -10 -10 l-54 0 q-10 0 -10 10 l0 91 q0 4 -4 4 l-293 0 q-10 0 -10 10 l0 54 q0 10 10 10 l362 0 Z" /><glyph glyph-name="asciitilde" unicode="~" d="M322 221 q-26 0 -44.5 8 q-18.5 8 -45.5 24 q-5 3 -19.5 11 q-14.5 8 -27 12 q-12.5 4 -24.5 4 q-42 0 -69 -39 q-5 -10 -14 -4 l-41 25 q-8 5 -5 14 q16 39 48 63.5 q32 24.5 73 24.5 q23 0 42 -7 q19 -7 38 -19 q28 -17 45 -25 q17 -8 39 -8 q19 0 32.5 10 q13.5 10 26.5 29 q6 8 14 3 l44 -27 q8 -5 4 -11 l-2 -4 q-48 -84 -114 -84 Z" /><glyph glyph-name="asciicircum" unicode="^" d="M41 304 q-11 0 -8 11 l125 377 q3 8 12 8 l64 0 q9 0 12 -8 l127 -377 l1 -4 q0 -7 -9 -7 l-62 0 q-9 0 -12 8 l-85 278 q-1 2 -3 2 q-2 0 -3 -2 l-86 -278 q-3 -8 -12 -8 l-61 0 Z" /><glyph glyph-name="infinity" unicode="&#x221e;" d="M470 488 q41 0 74.5 -22 q33.5 -22 52.5 -60.5 q19 -38.5 19 -86.5 q0 -49 -19.5 -87.5 q-19.5 -38.5 -53.5 -59.5 q-34 -21 -75 -21 q-44 0 -79.5 26.5 q-35.5 26.5 -67.5 72.5 q-3 3 -6 0 q-67 -99 -144 -99 q-39 0 -71.5 22 q-32.5 22 -51.5 61 q-19 39 -19 86 q0 49 19.5 87.5 q19.5 38.5 52.5 59.5 q33 21 72 21 q43 0 77.5 -26.5 q34.5 -26.5 65.5 -71.5 q3 -3 6 0 q70 98 148 98 ZM172 227 q24 0 47 21.5 q23 21.5 54 69.5 q2 3 0 6 q-30 47 -51.5 67.5 q-21.5 20.5 -47.5 20.5 q-29 0 -49.5 -25 q-20.5 -25 -20.5 -67 q0 -41 20 -67 q20 -26 48 -26 ZM469 227 q31 0 51.5 25 q20.5 25 20.5 67 q0 42 -20 67.5 q-20 25.5 -49 25.5 q-27 0 -53 -21.5 q-26 -21.5 -57 -67.5 q-2 -3 1 -7 q27 -43 52 -66 q25 -23 54 -23 Z" /><glyph glyph-name="integral" unicode="&#x222b;" d="M35 -205 q-10 0 -10 10 l0 65 q0 10 10 10 l14 0 q35 0 48.5 24 q13.5 24 13.5 70 l3 579 q0 59 17 91.5 q17 32.5 55 46 q38 13.5 105 14.5 q10 0 10 -10 l0 -65 q0 -10 -10 -10 l-16 0 q-35 0 -48.5 -23.5 q-13.5 -23.5 -14.5 -70.5 l-2 -579 q-1 -59 -17.5 -91.5 q-16.5 -32.5 -54 -46 q-37.5 -13.5 -103.5 -14.5 Z" /><glyph glyph-name="uni2206" unicode="&#x2206;" d="M21 0 q-10 0 -10 10 l0 67 q0 4 2 12 l205 603 q3 8 12 8 l53 0 q9 0 12 -8 l206 -604 q2 -8 2 -12 l0 -66 q0 -10 -10 -10 l-472 0 ZM106 88 q-1 -2 0.5 -3.5 q1.5 -1.5 3.5 -1.5 l294 0 q2 0 3.5 1.5 q1.5 1.5 0.5 3.5 l-148 482 q-1 2 -3 2 q-2 0 -3 -2 l-148 -482 Z" /><glyph glyph-name="product" unicode="&#x220f;" d="M404 800 q10 0 10 -10 l0 -980 q0 -10 -10 -10 l-76 0 q-10 0 -10 10 l0 903 q0 4 -4 4 l-152 0 q-4 0 -4 -4 l0 -903 q0 -10 -10 -10 l-76 0 q-10 0 -10 10 l0 980 q0 10 10 10 l332 0 Z" /><glyph glyph-name="summation" unicode="&#x2211;" d="M72 -199 q-10 0 -10 10 l0 65 q0 5 3 13 l204 416 q1 2 -1 6 l-202 344 q-3 6 -3 13 l0 66 q0 10 10 10 l388 0 q10 0 10 -10 l0 -63 q0 -10 -10 -10 l-302 0 q-2 0 -3 -1.5 q-1 -1.5 0 -3.5 l206 -341 q2 -4 2 -6 q0 -2 -2 -8 l-207 -413 q-2 -5 3 -5 l303 0 q10 0 10 -10 l0 -62 q0 -10 -10 -10 l-389 0 Z" /><glyph glyph-name="radical" unicode="&#x221a;" d="M156 -200 q-9 0 -12 8 l-122 367 l-1 4 q0 6 8 9 l70 23 l4 1 q6 0 9 -8 l73 -242 q1 -2 2.5 -2 q1.5 0 2.5 2 l188 821 q2 9 11 9 l226 0 q10 0 10 -10 l0 -63 q0 -10 -10 -10 l-157 0 q-5 0 -5 -3 l-209 -897 q-2 -9 -11 -9 l-77 0 Z" /><glyph glyph-name="uni00B5" unicode="µ" d="M288 499 q0 10 10 10 l76 0 q10 0 10 -10 l0 -489 q0 -10 -10 -10 l-76 0 q-10 0 -10 10 l0 29 q0 3 -1.5 3 q-1.5 0 -3.5 -2 q-30 -47 -96 -47 q-18 0 -35 3 q-1 1 -2.5 -0.5 q-1.5 -1.5 -1.5 -3.5 l0 -182 q0 -10 -10 -10 l-76 0 q-10 0 -10 10 l0 689 q0 10 10 10 l77 0 q10 0 10 -10 l0 -337 q0 -86 68 -86 q33 0 52 24.5 q19 24.5 19 67.5 l0 331 Z" /><glyph glyph-name="partialdiff" unicode="&#x2202;" d="M399 622 q38 -51 57 -129.5 q19 -78.5 19 -160.5 q0 -31 -3 -60 q-10 -118 -63 -199 q-53 -81 -161 -81 q-59 0 -105.5 25 q-46.5 25 -73 74.5 q-26.5 49.5 -26.5 119.5 q0 73 29 124.5 q29 51.5 75.5 77 q46.5 25.5 98.5 25.5 q70 0 128 -42 q2 -1 3.5 -0.5 q1.5 0.5 0.5 2.5 q-12 107 -51 163 q-40 54 -99 54 q-21 0 -45.5 -7 q-24.5 -7 -45.5 -20 q-4 -2 -6 -2 q-5 0 -7 6 l-26 64 l-1 4 q0 7 7 10 q71 36 132 36 q50 0 91.5 -22 q41.5 -22 71.5 -62 ZM256 75 q58 0 89 52.5 q31 52.5 37 143.5 q0 4 -1 5 q-16 37 -49.5 59.5 q-33.5 22.5 -71.5 22.5 q-52 0 -86.5 -40 q-34.5 -40 -34.5 -107 q0 -62 32.5 -99 q32.5 -37 84.5 -37 Z" /><glyph glyph-name="percent" unicode="%" d="M208 413 q-40 0 -73.5 20 q-33.5 20 -53 54 q-19.5 34 -19.5 75 q0 40 19.5 74 q19.5 34 53 53.5 q33.5 19.5 73.5 19.5 q39 0 72 -20 q33 -20 52.5 -53.5 q19.5 -33.5 19.5 -73.5 q0 -41 -19.5 -75 q-19.5 -34 -52.5 -54 q-33 -20 -72 -20 ZM177 0 q-6 0 -8.5 3.5 q-2.5 3.5 0.5 8.5 l367 681 q3 7 12 7 l49 0 q6 0 8.5 -3.5 q2.5 -3.5 -0.5 -8.5 l-367 -681 q-3 -7 -12 -7 l-49 0 ZM208 467 q37 0 63 27.5 q26 27.5 26 67.5 q0 39 -26 66.5 q-26 27.5 -63 27.5 q-38 0 -64.5 -27.5 q-26.5 -27.5 -26.5 -66.5 q0 -40 26.5 -67.5 q26.5 -27.5 64.5 -27.5 ZM569 -9 q-39 0 -72.5 20 q-33.5 20 -53 54 q-19.5 34 -19.5 74 q0 40 19.5 74 q19.5 34 53 54 q33.5 20 72.5 20 q39 0 72.5 -20 q33.5 -20 53 -54 q19.5 -34 19.5 -74 q0 -40 -19.5 -74 q-19.5 -34 -52.5 -54 q-33 -20 -73 -20 ZM569 44 q38 0 64 28 q26 28 26 67 q0 39 -26.5 66.5 q-26.5 27.5 -63.5 27.5 q-37 0 -63.5 -27.5 q-26.5 -27.5 -26.5 -66.5 q0 -40 26 -67.5 q26 -27.5 64 -27.5 Z" /><glyph glyph-name="lozenge" unicode="&#x25ca;" d="M183 -49 q-9 0 -12 8 l-140 384 q-3 7 0 14 l141 384 q3 8 12 8 l50 0 q9 0 12 -8 l140 -384 q4 -7 0 -14 l-139 -384 q-3 -8 -12 -8 l-52 0 ZM206 55 q1 -2 3 -2 q2 0 3 2 l98 292 q2 3 0 6 l-98 288 q-1 2 -3 2 q-2 0 -3 -2 l-98 -288 q-1 -3 0 -6 l98 -292 Z" /><glyph glyph-name="at" unicode="@" d="M421 630 q87 0 154 -35.5 q67 -35.5 104 -100.5 q37 -65 37 -150 q0 -25 -3 -52 q-13 -96 -62 -149.5 q-49 -53.5 -122 -53.5 q-63 0 -96 41 q-3 3 -6 0 q-14 -22 -36 -32 q-22 -10 -45 -10 q-48 0 -78 27 q-30 27 -30 75 q0 17 5 50 l4 36 q0 -3 9 67 q9 53 37.5 82.5 q28.5 29.5 77.5 29.5 q14 0 30 -6 q16 -6 29 -18 q1 -2 3 -1.5 q2 0.5 2 2.5 l1 8 q1 9 10 9 l47 0 q5 0 8 -3.5 q3 -3.5 2 -7.5 l-25 -195 q-1 -6 -1 -18 q0 -35 17 -53.5 q17 -18.5 46 -18.5 q40 0 67 38 q27 38 35 102 q3 24 3 46 q0 69 -29 121 q-29 52 -81.5 80 q-52.5 28 -121.5 28 q-74 0 -138.5 -38 q-64.5 -38 -107 -106.5 q-42.5 -68.5 -53.5 -154.5 q-3 -24 -3 -47 q0 -75 30 -129.5 q30 -54.5 80.5 -82.5 q50.5 -28 110.5 -28 q45 0 82 12 q37 12 62 31 l4 3 q1 1 3 1 q6 0 9 -5 l23 -36 q2 -4 2 -6 q0 -5 -5 -8 q-35 -25 -84.5 -40.5 q-49.5 -15.5 -106.5 -15.5 q-80 0 -143 36 q-63 36 -99 103.5 q-36 67.5 -36 157.5 q0 18 4 58 q13 103 66.5 184.5 q53.5 81.5 134.5 127 q81 45.5 173 45.5 ZM349 146 q22 0 37.5 15.5 q15.5 15.5 20.5 41.5 l2 12 l0 4 q0 9 1 13 l15 115 l0 4 q-2 21 -13.5 33.5 q-11.5 12.5 -30.5 12.5 q-22 0 -38.5 -16 q-16.5 -16 -19.5 -42 l-3 -21 q-5 -38 -6 -47 l-8 -68 q-2 -27 9.5 -42 q11.5 -15 33.5 -15 Z" /><glyph glyph-name="ampersand" unicode="&amp;" d="M520 12 q2 -2 2 -6 q0 -2 -2 -4 q-2 -2 -6 -2 l-82 0 q-7 0 -13 6 l-34 49 q-3 3 -6 0 q-37 -33 -77.5 -48.5 q-40.5 -15.5 -88.5 -15.5 q-82 0 -129.5 43.5 q-47.5 43.5 -47.5 125.5 q0 68 31 115.5 q31 47.5 85 90.5 q3 1 1 5 q-35 50 -51.5 78.5 q-16.5 28.5 -22 49 q-5.5 20.5 -5.5 46.5 q0 74 44 118.5 q44 44.5 115 44.5 q72 0 118 -45 q46 -45 46 -119 q0 -61 -31.5 -105.5 q-31.5 -44.5 -87.5 -88.5 q-3 -1 -1 -5 l48 -68 l58 -79 q2 -4 6 0 q3 6 11 18 q24 40 36 62 q2 4 6 5 q4 1 8 -1 l56 -32 q8 -5 4 -14 q-30 -56 -69 -111 q-1 -3 0 -6 l79 -107 ZM236 621 q-29 0 -47.5 -21.5 q-18.5 -21.5 -18.5 -57.5 q0 -25 9 -46.5 q9 -21.5 41 -70.5 q3 -4 6 -1 q37 31 56 58.5 q19 27.5 19 61.5 q0 34 -18 55.5 q-18 21.5 -47 21.5 ZM223 74 q52 0 105 51 q3 3 1 6 l-119 161 q-2 3 -5 0 q-35 -31 -54 -60.5 q-19 -29.5 -19 -65.5 q0 -41 23.5 -66.5 q23.5 -25.5 67.5 -25.5 Z" /><glyph glyph-name="paragraph" unicode="¶" d="M414 700 q10 0 10 -10 l0 -880 q0 -10 -10 -10 l-61 0 q-10 0 -10 10 l0 807 q0 4 -4 4 l-68 0 q-4 0 -4 -4 l0 -807 q0 -10 -10 -10 l-61 0 q-10 0 -10 10 l0 437 q0 4 -4 5 q-70 10 -111.5 71.5 q-41.5 61.5 -41.5 151.5 q0 64 22 115 q22 51 63 80.5 q41 29.5 95 29.5 l205 0 Z" /><glyph glyph-name="section" unicode="§" d="M203 -205 q-72 0 -116.5 44 q-44.5 44 -44.5 116 l0 16 q0 10 10 10 l76 0 q10 0 10 -10 l0 -10 q1 -37 19 -60 q18 -23 46 -23 q29 0 47.5 23.5 q18.5 23.5 18.5 57.5 q0 29 -16 50 q-16 21 -37.5 34 q-21.5 13 -55.5 30 q-42 20 -67.5 40.5 q-25.5 20.5 -39.5 53.5 q-15 35 -15 79 q0 51 26 93 q23 39 58 54 q5 2 0 5 q-38 25 -60.5 62.5 q-22.5 37.5 -22.5 87.5 q0 70 45 115 q45 45 118 45 q71 0 115.5 -45.5 q44.5 -45.5 45.5 -118.5 l0 -13 q0 -10 -10 -10 l-77 0 q-10 0 -10 10 l0 9 q0 37 -18 61 q-18 24 -47 24 q-29 0 -47 -24 q-18 -24 -18 -60 q0 -40 23 -64.5 q23 -24.5 74 -47.5 q45 -23 68.5 -37.5 q23.5 -14.5 41.5 -40.5 q27 -39 27 -93 q0 -53 -20 -91 q-22 -46 -65 -63 q-6 -2 -1 -5 q38 -24 59.5 -59 q21.5 -35 21.5 -85 q0 -71 -45 -115.5 q-45 -44.5 -117 -44.5 ZM204 157 q41 0 59 38 q12 26 12 56 q0 35 -18 62 q-22 29 -55 29 q-20 0 -34.5 -11 q-14.5 -11 -21.5 -28 q-11 -22 -11 -54 q0 -30 11 -55 q17 -37 58 -37 Z" /><glyph glyph-name="copyright" unicode="©" d="M409 -8 q-101 0 -184 47.5 q-83 47.5 -130 129.5 q-47 82 -47 182 q0 100 47 181.5 q47 81.5 130 128.5 q83 47 184 47 q102 0 184.5 -47 q82.5 -47 130 -128.5 q47.5 -81.5 47.5 -181.5 q0 -100 -47.5 -182 q-47.5 -82 -130 -129.5 q-82.5 -47.5 -184.5 -47.5 ZM409 48 q86 0 155.5 40 q69.5 40 109 109.5 q39.5 69.5 39.5 153.5 q0 84 -39.5 153 q-39.5 69 -109 108.5 q-69.5 39.5 -155.5 39.5 q-86 0 -155.5 -39.5 q-69.5 -39.5 -109 -108.5 q-39.5 -69 -39.5 -153 q0 -84 39.5 -153.5 q39.5 -69.5 109 -109.5 q69.5 -40 155.5 -40 ZM410 181 q-41 0 -66 23 q-25 23 -25 63 l0 162 q0 39 24.5 62 q24.5 23 66.5 23 q42 0 67 -23 q25 -23 25 -62 l0 -4 q0 -10 -10 -10 l-34 -2 q-10 0 -10 10 l0 10 q0 15 -10.5 25 q-10.5 10 -27.5 10 q-16 0 -26.5 -10 q-10.5 -10 -10.5 -25 l0 -170 q0 -16 10 -25.5 q10 -9.5 27 -9.5 q17 0 27.5 9.5 q10.5 9.5 10.5 25.5 l0 10 q0 10 10 10 l34 -2 q10 0 10 -10 l0 -4 q0 -39 -25 -62.5 q-25 -23.5 -67 -23.5 Z" /><glyph glyph-name="registered" unicode="®" d="M218 712 q55 0 100.5 -25.5 q45.5 -25.5 72 -70 q26.5 -44.5 26.5 -98.5 q0 -56 -26.5 -102 q-26.5 -46 -72 -72 q-45.5 -26 -100.5 -26 q-55 0 -100.5 26 q-45.5 26 -72 72 q-26.5 46 -26.5 102 q0 54 26.5 98.5 q26.5 44.5 72 70 q45.5 25.5 100.5 25.5 ZM218 362 q43 0 78 20.5 q35 20.5 55.5 56 q20.5 35.5 20.5 79.5 q0 41 -20.5 75.5 q-20.5 34.5 -55.5 54.5 q-35 20 -78 20 q-42 0 -77 -20 q-35 -20 -55.5 -54.5 q-20.5 -34.5 -20.5 -75.5 q0 -44 20 -79.5 q20 -35.5 55.5 -56 q35.5 -20.5 77.5 -20.5 ZM284 551 q0 -33 -26 -46 q-3 -3 -2 -6 l25 -62 q1 -2 1 -5 q0 -7 -8 -7 l-19 0 q-9 0 -12 8 l-23 63 q-1 3 -4 3 l-12 0 q-4 0 -4 -4 l0 -60 q0 -10 -10 -10 l-16 0 q-10 0 -10 10 l0 161 q0 10 10 10 l56 0 q24 0 39 -15.5 q15 -15.5 15 -39.5 ZM204 575 q-4 0 -4 -4 l0 -41 q0 -4 4 -4 l20 0 q11 0 17.5 7 q6.5 7 6.5 17 q0 12 -6.5 18.5 q-6.5 6.5 -17.5 6.5 l-20 0 Z" /><glyph glyph-name="trademark" unicode="&#x2122;" d="M25 651 q-10 0 -10 10 l0 29 q0 10 10 10 l192 0 q10 0 10 -10 l0 -29 q0 -10 -10 -10 l-66 0 q-4 0 -4 -4 l0 -288 q0 -10 -10 -10 l-36 0 q-10 0 -10 10 l0 288 q0 4 -4 4 l-62 0 ZM436 693 q3 7 12 7 l36 0 q10 0 10 -10 l0 -331 q0 -10 -10 -10 l-36 0 q-10 0 -10 10 l0 244 q0 3 -1.5 3 q-1.5 0 -3.5 -2 l-42 -83 q-3 -7 -7 -7 q-5 0 -8 7 l-43 84 q-2 2 -3.5 2 q-1.5 0 -1.5 -3 l0 -245 q0 -10 -10 -10 l-37 0 q-10 0 -10 10 l0 331 q0 10 10 10 l38 0 q9 0 12 -7 l49 -96 q1 -2 3 -2 q2 0 3 2 l50 96 Z" /><glyph glyph-name="degree" unicode="°" d="M179 483 q-44 0 -80.5 21.5 q-36.5 21.5 -58 59 q-21.5 37.5 -21.5 82.5 q0 45 21.5 82 q21.5 37 58 58.5 q36.5 21.5 80.5 21.5 q44 0 80.5 -21.5 q36.5 -21.5 58 -58.5 q21.5 -37 21.5 -82 q0 -45 -21.5 -82.5 q-21.5 -37.5 -58 -59 q-36.5 -21.5 -80.5 -21.5 ZM179 548 q40 0 67.5 28.5 q27.5 28.5 27.5 69.5 q0 41 -27.5 70 q-27.5 29 -67.5 29 q-40 0 -67.5 -29 q-27.5 -29 -27.5 -70 q0 -41 27.5 -69.5 q27.5 -28.5 67.5 -28.5 Z" /><glyph glyph-name="minute" unicode="&#x2032;" d="M134 700 q11 0 8 -11 l-62 -204 q-3 -8 -12 -8 l-57 0 q-5 0 -7.5 3 q-2.5 3 -1.5 8 l45 203 q2 9 11 9 l76 0 Z" /><glyph glyph-name="second" unicode="&#x2033;" d="M154 700 q11 0 8 -11 l-66 -204 q-3 -8 -12 -8 l-54 0 q-5 0 -7.5 3 q-2.5 3 -0.5 8 l47 203 q2 9 11 9 l74 0 ZM294 700 q11 0 8 -11 l-67 -204 q-3 -8 -12 -8 l-54 0 q-5 0 -7.5 3 q-2.5 3 -0.5 8 l48 203 q2 9 11 9 l74 0 Z" /><glyph glyph-name="bar" unicode="|" d="M41 -80 q-10 0 -10 10 l0 820 q0 10 10 10 l76 0 q10 0 10 -10 l0 -820 q0 -10 -10 -10 l-76 0 Z" /><glyph glyph-name="brokenbar" unicode="¦" d="M41 385 q-10 0 -10 10 l0 355 q0 10 10 10 l76 0 q10 0 10 -10 l0 -355 q0 -10 -10 -10 l-76 0 ZM41 -80 q-10 0 -10 10 l0 349 q0 10 10 10 l76 0 q10 0 10 -10 l0 -349 q0 -10 -10 -10 l-76 0 Z" /><glyph glyph-name="dagger" unicode="&#x2020;" d="M308 460 q10 0 10 -10 l0 -54 q0 -10 -10 -10 l-82 0 q-4 0 -4 -4 l0 -572 q0 -10 -10 -10 l-76 0 q-10 0 -10 10 l0 572 q0 4 -4 4 l-83 0 q-10 0 -10 10 l0 54 q0 10 10 10 l83 0 q4 0 4 4 l0 226 q0 10 10 10 l76 0 q10 0 10 -10 l0 -226 q0 -4 4 -4 l82 0 Z" /><glyph glyph-name="uni2113" unicode="&#x2113;" d="M324 94 q3 4 7 4 q4 0 7 -4 l33 -41 q6 -6 0 -14 q-41 -47 -122 -47 q-64 0 -99.5 42.5 q-35.5 42.5 -35.5 118.5 l0 71 q0 5 -5 2 l-28 -21 l-5 -2 q-6 0 -8 6 l-17 43 q-3 7 2 12 l4 3 q26 21 54 42 q2 2 2 5 l-1 189 q0 50 17 97 q17 47 50.5 77.5 q33.5 30.5 79.5 30.5 q52 0 84 -38.5 q32 -38.5 32 -98.5 q0 -77 -48 -143.5 q-48 -66.5 -132 -134.5 q-2 -2 -2 -5 l0 -122 q0 -101 66 -101 q36 0 65 29 ZM192 385 q0 -2 1.5 -3 q1.5 -1 3.5 1 q49 45 77 90 q28 45 28 91 q0 34 -13 55.5 q-13 21.5 -36 19.5 q-27 -4 -44.5 -43 q-17.5 -39 -16.5 -106 l0 -105 Z" /><glyph glyph-name="daggerdbl" unicode="&#x2021;" d="M318 396 q0 -10 -10 -10 l-82 0 q-4 0 -4 -4 l0 -264 q0 -4 4 -4 l82 0 q10 0 10 -10 l0 -54 q0 -10 -10 -10 l-82 0 q-4 0 -4 -4 l0 -226 q0 -10 -10 -10 l-76 0 q-10 0 -10 10 l0 226 q0 4 -4 4 l-83 0 q-10 0 -10 10 l0 54 q0 10 10 10 l83 0 q4 0 4 4 l0 264 q0 4 -4 4 l-83 0 q-10 0 -10 10 l0 54 q0 10 10 10 l83 0 q4 0 4 4 l0 226 q0 10 10 10 l76 0 q10 0 10 -10 l0 -226 q0 -4 4 -4 l82 0 q10 0 10 -10 l0 -54 Z" /><glyph glyph-name="estimated" unicode="&#x212e;" d="M414 708 q105 0 189 -47 q84 -47 131.5 -129 q47.5 -82 47.5 -185 q0 -4 -10 -4 l-622 0 q-4 0 -4 -4 l0 -191 q0 -3 2 -5 q46 -57 114.5 -89 q68.5 -32 151.5 -32 q94 0 174 46.5 q80 46.5 121 122.5 q4 7 12 7 l15 0 q5 0 7.5 -3.5 q2.5 -3.5 -0.5 -8.5 q-44 -87 -133 -140.5 q-89 -53.5 -196 -53.5 q-105 0 -188.5 46.5 q-83.5 46.5 -130.5 127.5 q-47 81 -47 181 q0 103 47 185.5 q47 82.5 130.5 129 q83.5 46.5 188.5 46.5 ZM149 556 q-2 -1 -2 -5 l0 -174 q0 -4 4 -4 l526 0 q4 0 4 4 l0 175 q0 3 -2 5 q-46 57 -114 89 q-68 32 -151 32 q-83 0 -151.5 -32 q-68.5 -32 -113.5 -90 Z" /><glyph glyph-name="uni02BB" unicode="&#x2bb;" d="M3 693 q0 7 9 7 l77 0 q9 0 11 -9 l44 -192 l0 -2 q0 -9 -9 -9 l-56 0 q-9 0 -12 8 l-63 193 l-1 4 Z" /><glyph glyph-name="uni02C9" unicode="&#x2c9;" d="M10 633 q-10 0 -10 10 l0 47 q0 10 10 10 l189 0 q10 0 10 -10 l0 -47 q0 -10 -10 -10 l-189 0 Z" /><glyph glyph-name="uni0307" unicode="&#x307;" d="M-70 589 q-28 0 -46 18 q-18 18 -18 46 q0 28 18 46 q18 18 46 18 q28 0 46 -18 q18 -18 18 -46 q0 -28 -18 -46 q-18 -18 -46 -18 Z" /><glyph glyph-name="gravecomb" unicode="&#x300;" d="M-11 585 q2 -4 2 -6 q0 -6 -9 -6 l-49 0 q-8 0 -12 6 l-74 109 l-2 5 q0 7 9 7 l61 0 q7 0 12 -7 l62 -108 Z" /><glyph glyph-name="acutecomb" unicode="&#x301;" d="M-147 573 q-6 0 -8 3.5 q-2 3.5 1 8.5 l62 108 q5 7 12 7 l61 0 q6 0 8 -3.5 q2 -3.5 -1 -8.5 l-74 -109 q-4 -6 -12 -6 l-49 0 Z" /><glyph glyph-name="uni030B" unicode="&#x30b;" d="M-292 573 q-5 0 -7 3.5 q-2 3.5 0 8.5 l54 108 q3 7 12 7 l63 0 q6 0 8.5 -3.5 q2.5 -3.5 -0.5 -8.5 l-59 -108 q-3 -7 -12 -7 l-59 0 ZM-154 573 q-6 0 -8.5 3.5 q-2.5 3.5 0.5 8.5 l58 108 q3 7 12 7 l59 0 q6 0 8.5 -3.5 q2.5 -3.5 -0.5 -8.5 l-59 -108 q-3 -7 -12 -7 l-58 0 Z" /><glyph glyph-name="uni0302" unicode="&#x302;" d="M-263 577 q-6 0 -7.5 3.5 q-1.5 3.5 1.5 8.5 l65 104 q5 7 12 7 l85 0 q7 0 12 -7 l68 -104 q2 -4 2 -6 q0 -6 -8 -6 l-61 0 q-7 0 -12 7 l-39 68 q-1 2 -3 2 q-2 0 -3 -2 l-39 -68 q-5 -7 -12 -7 l-61 0 Z" /><glyph glyph-name="uni0306" unicode="&#x306;" d="M-129 574 q-45 0 -76 28 q-31 28 -35 72 q0 10 10 10 l34 0 q10 0 10 -10 q4 -23 19.5 -38 q15.5 -15 37.5 -15 q22 0 37 15 q15 15 18 38 q1 10 11 10 l34 0 q5 0 7.5 -3 q2.5 -3 1.5 -7 q-3 -44 -33.5 -72 q-30.5 -28 -75.5 -28 Z" /><glyph glyph-name="uni030A" unicode="&#x30a;" d="M-101 573 q-48 0 -80.5 33 q-32.5 33 -32.5 81 q0 48 32.5 80.5 q32.5 32.5 80.5 32.5 q47 0 79.5 -32.5 q32.5 -32.5 32.5 -80.5 q0 -48 -32.5 -81 q-32.5 -33 -79.5 -33 ZM-101 627 q24 0 41 17.5 q17 17.5 17 42.5 q0 25 -17 42.5 q-17 17.5 -41 17.5 q-24 0 -41.5 -17.5 q-17.5 -17.5 -17.5 -42.5 q0 -25 17.5 -42.5 q17.5 -17.5 41.5 -17.5 Z" /><glyph glyph-name="tildecomb" unicode="&#x303;" d="M-90 600 q-13 0 -24.5 5 q-11.5 5 -29.5 15 q-5 3 -13.5 9 q-8.5 6 -15 8.5 q-6.5 2.5 -14.5 2.5 q-13 0 -22.5 -5.5 q-9.5 -5.5 -19.5 -20.5 q-2 -4 -6 -5 q-4 -1 -8 2 l-28 20 q-7 6 -3 13 q13 30 34 45 q21 15 46 15 q16 0 30 -6 q14 -6 30 -17 q4 -2 12 -8 q8 -6 16 -9 q8 -3 16 -3 q12 0 22 5.5 q10 5.5 19 20.5 q4 9 14 3 l27 -18 q4 -3 4 -9 q0 -4 -3 -10 q-15 -28 -38 -40.5 q-23 -12.5 -45 -12.5 Z" /><glyph glyph-name="uni0304" unicode="&#x304;" d="M-199 611 q-10 0 -10 10 l0 47 q0 10 10 10 l189 0 q10 0 10 -10 l0 -47 q0 -10 -10 -10 l-189 0 Z" /><glyph glyph-name="hookabovecomb" unicode="&#x309;" d="M-324 552 q-5 1 -7 4.5 q-2 3.5 0 8.5 q11 26 34 49 q12 13 17 21.5 q5 8.5 5 22.5 q0 13 -10.5 22.5 q-10.5 9.5 -25.5 9.5 q-17 0 -27.5 -7.5 q-10.5 -7.5 -24.5 -26.5 q-6 -9 -14 -3 l-24 17 q-8 6 -2 14 q20 30 40 43 q20 13 54 13 q40 0 64.5 -22.5 q24.5 -22.5 24.5 -59.5 q0 -22 -9.5 -37.5 q-9.5 -15.5 -28.5 -35.5 q-20 -18 -27 -32 q-4 -7 -13 -6 l-26 5 Z" /><glyph glyph-name="uni0312" unicode="&#x312;" d="M-33 700 q6 0 8 -3.5 q2 -3.5 -1 -8.5 l-61 -108 q-5 -7 -12 -7 l-61 0 q-6 0 -8 3.5 q-2 3.5 1 8.5 l74 109 q4 6 12 6 l48 0 Z" /><glyph glyph-name="uni031B" unicode="&#x31b;" d="M-119 463 q-10 0 -10 10 l0 26 q0 10 9 11 q22 3 37.5 20.5 q15.5 17.5 18.5 49.5 q0 10 10 10 l34 0 q5 0 7.5 -3.5 q2.5 -3.5 1.5 -9.5 q-4 -52 -34 -81.5 q-30 -29.5 -74 -32.5 Z" /><glyph glyph-name="dotbelowcomb" unicode="&#x323;" d="M-70 -209 q-26 0 -43.5 17.5 q-17.5 17.5 -17.5 43.5 q0 27 17.5 44 q17.5 17 43.5 17 q26 0 43.5 -17 q17.5 -17 17.5 -44 q0 -26 -17.5 -43.5 q-17.5 -17.5 -43.5 -17.5 Z" /><glyph glyph-name="uni0327" unicode="&#x327;" d="M-119 -182 q-9 2 -8 11 l4 31 q2 10 13 8 q3 -1 9 -1 q14 0 23.5 8 q9.5 8 12.5 24 q1 3 1 10 q0 37 -42 79 q-3 3 -3 7 q0 5 8 5 l42 0 q7 0 10 -3 q0 0 4 -4 q46 -42 46 -96 q0 -46 -24 -65 q-24 -19 -58 -19 q-21 0 -38 5 Z" /><glyph glyph-name="uni0328" unicode="&#x328;" d="M-5 -174 q0 -6 -7 -9 q-20 -4 -36 -4 q-35 0 -59.5 18.5 q-24.5 18.5 -24.5 64.5 q0 56 44 97 l4 4 q4 3 10 3 l42 0 q7 0 8.5 -3.5 q1.5 -3.5 -3.5 -8.5 q-41 -43 -41 -79 q0 -22 10.5 -32 q10.5 -10 26.5 -10 q6 0 9 1 l3 0 q8 0 9 -7 l5 -32 l0 -3 Z" /><glyph glyph-name="uni0335" unicode="&#x335;" d="M-279 614 q0 10 10 10 l253 0 q10 0 10 -10 l0 -41 q0 -10 -10 -10 l-253 0 q-10 0 -10 10 l0 41 Z" /><glyph glyph-name="uni0336" unicode="&#x336;" d="M-436 513 q-10 0 -10 10 l0 48 q0 10 10 10 l426 0 q10 0 10 -10 l0 -48 q0 -10 -10 -10 l-426 0 Z" /><glyph glyph-name="uni0337" unicode="&#x337;" d="M-298 135 q-3 -3 -7 -3 q-4 0 -7 4 l-35 42 q-3 3 -3 7 q0 4 4 7 l357 275 q2 2 6 2 q5 0 8 -4 l35 -42 q3 -3 3 -7 q0 -4 -4 -7 l-357 -274 Z" /><glyph glyph-name="uni0338" unicode="&#x338;" d="M-392 -43 q-5 0 -7.5 3.5 q-2.5 3.5 -0.5 8.5 l329 771 q3 8 11 8 l47 0 q5 0 7.5 -3.5 q2.5 -3.5 0.5 -8.5 l-330 -771 q-3 -8 -11 -8 l-46 0 Z" /><glyph glyph-name="breve" unicode="&#x2d8;" d="M130 555 q-46 0 -76.5 28 q-30.5 28 -34.5 72 q0 10 10 10 l34 0 q10 0 11 -10 q3 -24 18.5 -39 q15.5 -15 37.5 -15 q22 0 37.5 15 q15.5 15 17.5 39 q1 10 11 10 l34 0 q10 0 10 -10 q-4 -44 -34 -72 q-30 -28 -76 -28 Z" /><glyph glyph-name="caron" unicode="&#x2c7;" d="M27 688 q-2 4 -2 6 q0 6 8 6 l61 0 q7 0 12 -7 l39 -68 q1 -1 3 -1 q2 0 3 1 l39 68 q5 7 12 7 l61 0 q6 0 7.5 -3.5 q1.5 -3.5 -1.5 -8.5 l-68 -104 q-5 -7 -12 -7 l-85 0 q-7 0 -12 7 l-65 104 Z" /><glyph glyph-name="cedilla" unicode="¸" d="M13 -182 q-9 2 -8 11 l4 31 q1 4 4 6.5 q3 2.5 8 1.5 q3 -1 10 -1 q14 0 23.5 8 q9.5 8 12.5 24 q6 42 -41 89 q-3 3 -3 7 q0 5 8 5 l42 0 q7 0 10 -3 q0 0 4 -4 q45 -42 45 -97 q0 -15 -2 -23 q-8 -32 -29.5 -46 q-21.5 -14 -50.5 -14 q-20 0 -37 5 Z" /><glyph glyph-name="hungarumlaut" unicode="&#x2dd;" d="M33 581 q-6 0 -8 3.5 q-2 3.5 1 8.5 l61 108 q5 7 12 7 l60 0 q6 0 8 -3.5 q2 -3.5 -1 -8.5 l-73 -109 q-4 -6 -12 -6 l-48 0 ZM170 581 q-6 0 -8 3.5 q-2 3.5 1 8.5 l61 108 q5 7 12 7 l60 0 q6 0 8 -3.5 q2 -3.5 -1 -8.5 l-73 -109 q-4 -6 -12 -6 l-48 0 Z" /><glyph glyph-name="macron" unicode="¯" d="M123 590 q-10 0 -10 10 l0 48 q0 10 10 10 l188 0 q10 0 10 -10 l0 -48 q0 -10 -10 -10 l-188 0 Z" /><glyph glyph-name="ogonek" unicode="&#x2db;" d="M127 -173 q0 -7 -8 -10 q-20 -4 -36 -4 q-35 0 -59 18.5 q-24 18.5 -24 64.5 q0 55 45 97 l4 4 q3 3 10 3 l41 0 q7 0 8.5 -3.5 q1.5 -3.5 -3.5 -8.5 q-41 -41 -41 -78 q0 -22 10 -32.5 q10 -10.5 26 -10.5 q7 0 10 1 l3 0 q8 0 9 -7 l5 -32 l0 -2 Z" /></font>
</defs>
</svg>
