<?xml version="1.0" standalone="no"?><!DOCTYPE svg PUBLIC "-//W3C//DTD SVG 1.1//EN" "http://www.w3.org/Graphics/SVG/1.1/DTD/svg11.dtd"><svg t="1605507508250" class="icon" viewBox="0 0 1024 1024" version="1.1" xmlns="http://www.w3.org/2000/svg" p-id="2352" xmlns:xlink="http://www.w3.org/1999/xlink" width="200" height="200"><defs><style type="text/css"></style></defs><path d="M959.78 512c0 192.21-121.11 356.13-291.17 419.62-9.12 3.41-18.37 6.53-27.76 9.34a444.329 444.329 0 0 1-74.13 15.5c-17.93 2.2-36.2 3.32-54.72 3.32-21.85 0-43.32-1.56-64.33-4.59h-0.01c-25.45-3.66-50.2-9.46-74.07-17.21-6.52-2.12-12.98-4.38-19.36-6.8C184.77 867.38 64.22 703.77 64.22 512 64.22 264.7 264.7 64.22 512 64.22S959.78 264.7 959.78 512z" fill="#F2F6FC" p-id="2353"></path><path d="M668.61 931.62c-9.12 3.41-18.37 6.53-27.76 9.34a444.329 444.329 0 0 1-74.13 15.5c-17.93 2.2-36.2 3.32-54.72 3.32-21.85 0-43.32-1.56-64.33-4.59h-0.01c-25.45-3.66-50.2-9.46-74.07-17.21-6.52-2.12-12.98-4.38-19.36-6.8 3.1-13.99 7.23-30.44 12.09-44.58 5.17-15.02 11.16-27.44 17.63-31.52h248.59c6.31 3.29 12.24 12.01 17.59 23.14 7.58 15.8 13.96 36.46 18.48 53.4z" fill="#5F94C8" p-id="2354"></path><path d="M651.98 865.71l-1.85 12.51-9.28 62.74a444.329 444.329 0 0 1-74.13 15.5c-17.93 2.2-36.2 3.32-54.72 3.32-21.85 0-43.32-1.56-64.33-4.59h-0.01c-25.45-3.66-50.2-9.46-74.07-17.21l-7.27-51.38-2.4-16.99 51.9-40.21h0.01l89.82-31.39 92.83 25.93h0.01l53.49 41.77z" fill="#8AC0ED" p-id="2355"></path><path d="M598.48 823.92v0.02l-7.47 31.14-24.29 101.38c-17.93 2.2-36.2 3.32-54.72 3.32-21.85 0-43.32-1.56-64.33-4.59h-0.01l-25.34-100.11-6.5-25.68v-0.01l7.03-4.78-1.96-3.26s12.83-11.85 41-18.89c28.17-7.04 50.56-4.68 50.56-4.68v0.6c9.08 0.59 21.89 1.76 36.47 4.09 30.07 4.81 44.51 8.98 44.51 8.98l-3.51 8.98 8.56 3.49z" fill="#FFFFFF" p-id="2356"></path><path d="M316.1 660.34s-57.81-77.08-44.96-218.39h-12.85s25.69-218.39 231.23-186.27c0 0 51.38-38.54 96.35-25.69 0 0-19.27 6.42-19.27 25.69 0 0 147.73-19.27 199.12 173.42 0 0-6.42-6.42-12.85 0s6.42 134.89-38.54 199.12l-16.85 32.12H316.1z" fill="#35250B" p-id="2357"></path><path d="M714.33 551.15c-0.34 0-0.66 0.05-1 0.05-8.82-111.6-93.87-199.17-204.54-199.17-110.76 0-195.84 87.7-204.56 199.43-25.82 2.89-45.95 26.08-45.95 54.28 0 30.15 23.01 54.6 51.38 54.6 1.88 0 3.73-0.12 5.55-0.33 22.6 75.91 80.23 128.79 193.57 128.79 99.97 0 164.51-53.74 191.25-130.65 4.54 1.4 9.33 2.18 14.29 2.18 28.38 0 51.38-24.44 51.38-54.6 0.01-30.14-22.99-54.58-51.37-54.58z" fill="#FFD5C5" p-id="2358"></path><path d="M566.59 586.47a16.06 22.48 0 1 0 32.12 0 16.06 22.48 0 1 0-32.12 0Z" fill="#5D2116" p-id="2359"></path><path d="M412.44 586.47a16.06 22.48 0 1 0 32.12 0 16.06 22.48 0 1 0-32.12 0Z" fill="#5D2116" p-id="2360"></path><path d="M508.79 643.57c-7.53 0-21.77-3.21-21.77-15.35 0-14.02 19.55-27.21 20.38-27.77 1.15-0.77 2.7-0.45 3.47 0.69 0.77 1.15 0.46 2.7-0.69 3.47-5.05 3.38-18.16 14.2-18.16 23.61 0 10.19 16.61 10.35 16.77 10.35a2.5 2.5 0 0 1 0 5z" fill="#5D2116" p-id="2361"></path><path d="M463.96 676.46c-0.09-1.33 1.37-2.18 2.47-1.43 7 4.82 26.78 17.42 42.36 17.42 16.14 0 32.29-13.52 37.1-17.91a0.95 0.95 0 0 1 1.6 0.64c0.63 10.19 1.24 55.81-38.7 55.81-38.46 0-44.02-42.3-44.83-54.53z" fill="#E83733" p-id="2362"></path><path d="M508.79 352.03c-52.18 0-98.66 19.48-134.14 51.76 0.1 0.08 89.23 76.71 179.1 76.71 0 0-6.42-12.85-6.42-32.12 0 0 84.65 43.03 154.72 47.21-27.91-83.75-101.81-143.56-193.26-143.56z" fill="#35250B" p-id="2363"></path><path d="M508.79 856.24c-19.65 0-35.57-15.93-35.57-35.57v-31.62c0-19.65 15.93-35.57 35.57-35.57 19.65 0 35.57 15.93 35.57 35.57v31.62c0 19.65-15.92 35.57-35.57 35.57z" fill="#FFD5C5" p-id="2364"></path><path d="M612.44 649.09a34.75 16.77 0 1 0 69.5 0 34.75 16.77 0 1 0-69.5 0Z" fill="#FFA49C" opacity=".5" p-id="2365"></path><path d="M342.04 649.09a34.75 16.77 0 1 0 69.5 0 34.75 16.77 0 1 0-69.5 0Z" fill="#FFA49C" opacity=".5" p-id="2366"></path><path d="M505.58 710.06c-11.33 0-21.76 1.39-30.05 3.72 6.63 9.65 17 17.21 33.26 17.21 15.59 0 25-6.95 30.64-16.03-8.79-3.03-20.71-4.9-33.85-4.9z" fill="#FF7676" p-id="2367"></path></svg>