<?xml version="1.0" standalone="no"?><!DOCTYPE svg PUBLIC "-//W3C//DTD SVG 1.1//EN" "http://www.w3.org/Graphics/SVG/1.1/DTD/svg11.dtd"><svg t="1605507522997" class="icon" viewBox="0 0 1024 1024" version="1.1" xmlns="http://www.w3.org/2000/svg" p-id="2494" xmlns:xlink="http://www.w3.org/1999/xlink" width="200" height="200"><defs><style type="text/css"></style></defs><path d="M959.78 512c0 192.21-121.11 356.13-291.17 419.62-9.12 3.41-18.37 6.53-27.76 9.34a444.329 444.329 0 0 1-74.13 15.5c-17.93 2.2-36.2 3.32-54.72 3.32-21.85 0-43.32-1.56-64.33-4.59h-0.01c-25.45-3.66-50.2-9.46-74.07-17.21-6.52-2.12-12.98-4.38-19.36-6.8C184.77 867.38 64.22 703.77 64.22 512 64.22 264.7 264.7 64.22 512 64.22S959.78 264.7 959.78 512z" fill="#F2F6FC" p-id="2495"></path><path d="M655.97 936.13a441.29 441.29 0 0 1-46.08 12.91c-31.51 7.03-64.27 10.74-97.89 10.74-38.99 0-76.83-4.98-112.89-14.36a439.84 439.84 0 0 1-48.64-15.67c7.87-19.76 18.54-43.18 32.45-65.44 9.71-15.53 20.99-30.49 34-43.24 3.12-3.07 6.35-6.01 9.67-8.79 0 0 0.01-0.02 0.02-0.02 20.91-17.53 45.84-29.13 75.29-29.16h0.14c31.01 0.03 57 12.89 78.57 31.99 0.02 0.01 0.03 0.03 0.05 0.05 2.71 2.39 5.33 4.88 7.9 7.46 0.07 0.08 0.15 0.15 0.22 0.23 32.71 32.96 54.29 79.73 67.19 113.3z" fill="#FFECB8" p-id="2496"></path><path d="M609.89 949.04c-31.51 7.03-64.27 10.74-97.89 10.74-38.99 0-76.83-4.98-112.89-14.36l17.21-77.38h175.55l18.02 81z" fill="#FF8D73" p-id="2497"></path><path d="M427.74 811.43l-0.04 56.61v7.65h-10.82l0.01-7.65 0.03-46.97v-0.01c2.82-2.88 6.29-6.23 9.67-8.78 0 0 0.01-0.02 0.02-0.02 0.38-0.29 0.75-0.57 1.13-0.83zM591.27 825.45l-0.03 42.59-0.01 7.65v0.01h-10.82v-0.01l0.01-7.65 0.03-53.07c0.05 0.04 0.11 0.08 0.16 0.12 0.02 0.01 0.03 0.03 0.05 0.05 2.66 2.03 5.42 4.85 7.9 7.46 0.07 0.08 0.15 0.15 0.22 0.23 0.87 0.92 1.7 1.81 2.49 2.62z" fill="#FF8D73" p-id="2498"></path><path d="M585.82 875.69m-5.41 0a5.41 5.41 0 1 0 10.82 0 5.41 5.41 0 1 0-10.82 0Z" fill="#FFFFFF" p-id="2499"></path><path d="M423.87 875.69m-5.41 0a5.41 5.41 0 1 0 10.82 0 5.41 5.41 0 1 0-10.82 0Z" fill="#FFFFFF" p-id="2500"></path><path d="M640.94 767.43h-276.3c-55.84 0-101.1-45.26-101.1-101.1 0-55.84 45.26-101.1 101.1-101.1h276.3c55.84 0 101.1 45.26 101.1 101.1 0 55.83-45.27 101.1-101.1 101.1z" fill="#35250B" p-id="2501"></path><path d="M504.23 723.39c-131.33 0-237.8-106.47-237.8-237.8s106.47-237.8 237.8-237.8 237.8 106.47 237.8 237.8c0.01 131.33-106.46 237.8-237.8 237.8z" fill="#35250B" p-id="2502"></path><path d="M707.82 536.74c-0.34 0-0.66 0.05-1 0.05-8.82-111.6-93.87-199.17-204.54-199.17-110.76 0-195.84 87.7-204.56 199.43-25.82 2.89-45.95 26.08-45.95 54.28 0 30.15 23.01 54.6 51.38 54.6 1.88 0 3.73-0.12 5.55-0.33 22.6 75.91 80.23 128.79 193.57 128.79 99.97 0 164.51-53.74 191.25-130.65 4.54 1.4 9.33 2.18 14.29 2.18 28.38 0 51.38-24.44 51.38-54.6 0.01-30.13-22.99-54.58-51.37-54.58z" fill="#FFD5C5" p-id="2503"></path><path d="M560.08 572.07a16.06 22.48 0 1 0 32.12 0 16.06 22.48 0 1 0-32.12 0Z" fill="#5D2116" p-id="2504"></path><path d="M405.93 572.07a16.06 22.48 0 1 0 32.12 0 16.06 22.48 0 1 0-32.12 0Z" fill="#5D2116" p-id="2505"></path><path d="M502.28 629.17c-7.53 0-21.77-3.21-21.77-15.35 0-14.02 19.55-27.22 20.38-27.77 1.15-0.77 2.7-0.46 3.47 0.69s0.46 2.7-0.69 3.47c-5.05 3.38-18.16 14.2-18.16 23.61 0 10.19 16.61 10.35 16.77 10.35a2.5 2.5 0 0 1 0 5z" fill="#5D2116" p-id="2506"></path><path d="M502.28 841.84c-19.65 0-35.58-15.93-35.58-35.57v-31.62c0-19.65 15.93-35.57 35.57-35.57 19.65 0 35.57 15.93 35.57 35.57v31.62c0.01 19.64-15.92 35.57-35.56 35.57z" fill="#FFD5C5" p-id="2507"></path><path d="M272.86 525.88h231.09l18.9-76.8 18.9 76.8h193.87c0-111.67-84.11-202.2-195.78-202.2h-71.2c-111.68 0-195.78 90.53-195.78 202.2z" fill="#35250B" p-id="2508"></path><path d="M457.96 662.46c-0.09-1.33 1.37-2.18 2.47-1.43 7 4.82 26.78 17.42 42.36 17.42 16.14 0 32.29-13.52 37.1-17.91a0.95 0.95 0 0 1 1.6 0.64c0.63 10.19 1.24 55.81-38.7 55.81-38.46 0-44.02-42.3-44.83-54.53z" fill="#E83733" p-id="2509"></path><path d="M606.44 635.09a34.75 16.77 0 1 0 69.5 0 34.75 16.77 0 1 0-69.5 0Z" fill="#FFA49C" opacity=".5" p-id="2510"></path><path d="M336.04 635.09a34.75 16.77 0 1 0 69.5 0 34.75 16.77 0 1 0-69.5 0Z" fill="#FFA49C" opacity=".5" p-id="2511"></path><path d="M499.58 696.06c-11.33 0-21.76 1.39-30.05 3.72 6.63 9.65 17 17.21 33.26 17.21 15.59 0 25-6.95 30.64-16.03-8.79-3.03-20.71-4.9-33.85-4.9z" fill="#FF7676" p-id="2512"></path></svg>